<?xml version="1.0" encoding="UTF-8" standalone="no"?>
<svg width="20px" height="16px" viewBox="0 0 20 16" version="1.1" xmlns="http://www.w3.org/2000/svg" xmlns:xlink="http://www.w3.org/1999/xlink">
    <!-- Generator: Sketch 3.6.1 (26313) - http://www.bohemiancoding.com/sketch -->
    <title>List</title>
    <desc>Created with Sketch.</desc>
    <defs></defs>
    <g id="Page-1" stroke="none" stroke-width="1" fill="none" fill-rule="evenodd">
        <g id="MOBILE_ONE_PAGE" transform="translate(-278.000000, -16.000000)" fill="#0000FD">
            <path d="M296.571429,22.4 L279.428571,22.4 C278.639429,22.4 278,23.11616 278,24 C278,24.88384 278.639429,25.6 279.428571,25.6 L296.571429,25.6 C297.360571,25.6 298,24.88384 298,24 C298,23.11616 297.360571,22.4 296.571429,22.4 L296.571429,22.4 Z M279.428571,19.2 L296.571429,19.2 C297.360571,19.2 298,18.48384 298,17.6 C298,16.71616 297.360571,16 296.571429,16 L279.428571,16 C278.639429,16 278,16.71616 278,17.6 C278,18.48384 278.639714,19.2 279.428571,19.2 L279.428571,19.2 Z M296.571429,28.8 L279.428571,28.8 C278.639429,28.8 278,29.51616 278,30.4 C278,31.28384 278.639429,32 279.428571,32 L296.571429,32 C297.360571,32 298,31.28384 298,30.4 C298,29.51616 297.360571,28.8 296.571429,28.8 L296.571429,28.8 Z" id="List"></path>
        </g>
    </g>
</svg>