<?xml version="1.0" encoding="UTF-8" standalone="no"?>
<svg width="28px" height="28px" viewBox="0 0 28 28" version="1.1" xmlns="http://www.w3.org/2000/svg" xmlns:xlink="http://www.w3.org/1999/xlink">
    <!-- Generator: Sketch 3.6.1 (26313) - http://www.bohemiancoding.com/sketch -->
    <title>Page 1</title>
    <desc>Created with Sketch.</desc>
    <defs>
        <path id="path-1" d="M0,0.262 L27.9385,0.262 L27.9385,28 L0,28 L0,0.262 Z"></path>
    </defs>
    <g id="Page-1" stroke="none" stroke-width="1" fill="none" fill-rule="evenodd">
        <g id="MOBILE_ONE_PAGE" transform="translate(-23.000000, -13.000000)">
            <g id="Page-1" transform="translate(23.000000, 13.000000)">
                <mask id="mask-2" fill="white">
                    <use xlink:href="#path-1"></use>
                </mask>
                <g id="Clip-2"></g>
                <path d="M25.4541,23.1587 C25.2066,23.2752 24.9606,23.3267 24.7366,23.3267 C24.5806,23.3267 24.4351,23.3007 24.3086,23.2542 C24.4246,23.2857 24.5501,23.3022 24.6806,23.3022 C24.9291,23.3022 25.1901,23.2422 25.4356,23.1282 L25.4436,23.1242 C26.7781,22.3902 27.5841,21.2332 27.7801,19.8037 C27.5971,21.2442 26.8041,22.4107 25.4541,23.1587 L25.4541,23.1587 Z M24.1701,5.4162 C24.0766,5.3252 23.9776,5.2287 23.8736,5.1352 C24.0031,5.2472 24.1256,5.3652 24.2421,5.4737 C25.4841,6.6337 26.2981,7.9322 26.4621,9.6527 C26.5051,10.1027 26.5481,10.5522 26.5901,11.0022 C26.5451,10.5732 26.4996,10.1442 26.4546,9.7147 C26.2891,8.1372 25.5806,6.7887 24.2261,5.4712 L24.1701,5.4162 Z M23.6751,18.0732 C23.4701,18.5482 23.0946,18.9132 22.6181,19.1017 C22.3316,19.2152 22.0391,19.2727 21.7506,19.2727 C21.2616,19.2727 20.8126,19.1002 20.4491,18.8012 C20.1891,19.3477 19.9896,19.8847 19.8736,20.4217 C19.9366,19.8907 20.0931,19.3327 20.3471,18.7177 C20.2816,18.6562 20.2206,18.5887 20.1621,18.5187 C19.9861,18.9312 19.8381,19.3397 19.7401,19.7462 C19.8021,19.3312 19.9211,18.8962 20.0916,18.4322 C20.0271,18.3462 19.9671,18.2537 19.9131,18.1562 C19.8001,18.4437 19.6986,18.7302 19.6216,19.0147 C19.6781,18.7162 19.7686,18.4027 19.8761,18.0797 C19.8441,18.0172 19.8101,17.9557 19.7831,17.8887 C19.7566,17.8242 19.7311,17.7587 19.7046,17.6937 C19.6341,17.8817 19.5686,18.0692 19.5131,18.2557 C19.5586,18.0557 19.6171,17.8497 19.6826,17.6397 C19.6256,17.4977 19.5681,17.3552 19.5101,17.2127 C19.4796,17.3002 19.4436,17.3882 19.4151,17.4752 C19.4391,17.3832 19.4741,17.2852 19.5016,17.1907 C18.9516,15.8282 18.4001,14.4552 17.8631,13.1192 C17.6071,12.4797 17.3506,11.8402 17.0926,11.2007 C16.7076,12.5272 16.6101,13.6812 16.7831,14.7947 L16.7896,14.8392 L17.4181,16.4087 C17.6516,16.9907 17.6531,17.6047 17.4231,18.1377 C17.2191,18.6127 16.8436,18.9787 16.3671,19.1667 C16.0796,19.2802 15.7881,19.3372 15.4986,19.3372 C15.2176,19.3372 14.9476,19.2837 14.6951,19.1767 C14.1511,18.9807 13.7511,18.5787 13.5081,17.9822 C13.0806,16.9352 12.6521,15.8677 12.2386,14.8357 C12.0666,14.4052 11.8936,13.9737 11.7201,13.5437 C11.7201,13.5437 11.0061,11.7667 10.8266,11.3212 C10.4541,12.6242 10.3606,13.7612 10.5321,14.8592 C10.5896,15.2242 10.7471,15.5772 10.9131,15.9512 C10.9846,16.1122 11.0586,16.2787 11.1236,16.4462 C11.4116,17.1857 11.3596,17.8672 10.9681,18.4732 C10.5806,19.0727 10.0096,19.3772 9.2696,19.3772 C9.1726,19.3772 9.0711,19.3712 8.9681,19.3602 C8.1646,19.2757 7.5726,18.8217 7.2561,18.0467 C6.8316,17.0057 6.4066,15.9447 5.9951,14.9192 C5.8191,14.4817 5.6456,14.0447 5.4691,13.6082 L5.0541,12.5767 C4.7616,11.8512 4.4696,11.1257 4.1796,10.3992 C3.9161,9.7412 3.9491,9.1112 4.2761,8.5267 C4.6526,7.8557 5.2771,7.5007 6.0836,7.5007 C6.1141,7.5007 6.1466,7.5007 6.1781,7.5022 C7.0506,7.5312 7.6921,7.9712 8.0331,8.7747 C8.2686,9.3292 8.4961,9.8967 8.7176,10.4452 C8.8266,10.7177 8.9361,10.9902 9.0476,11.2617 C9.0646,11.3047 9.0821,11.3477 9.1001,11.3907 C9.1066,11.3687 9.1121,11.3477 9.1181,11.3257 C9.2576,10.8437 9.4021,10.3447 9.5781,9.8662 C9.8716,9.0657 10.2851,8.4662 10.8411,8.0347 C11.2041,7.6532 11.6816,7.4522 12.2636,7.4367 C12.3111,7.4337 12.3591,7.4317 12.4061,7.4317 C12.5876,7.4317 12.7676,7.4582 12.9416,7.5097 C13.4511,7.6407 13.8501,7.9412 14.1276,8.4022 C14.2106,8.5247 14.2771,8.6472 14.3271,8.7662 C14.6396,9.5202 14.9726,10.3337 15.3611,11.2917 C15.3636,11.2807 15.3671,11.2692 15.3706,11.2582 C15.5096,10.7762 15.6541,10.2787 15.8291,9.8012 C16.1671,8.8802 16.6651,8.2217 17.3526,7.7867 C17.7936,7.5077 18.2316,7.3657 18.6566,7.3657 C19.0491,7.3657 19.4271,7.4877 19.7791,7.7277 C20.1191,7.9597 20.4256,8.3327 20.5781,8.7012 C21.4971,10.9192 22.4041,13.1852 23.2816,15.3767 L23.6701,16.3442 C23.9026,16.9257 23.9041,17.5402 23.6751,18.0732 L23.6751,18.0732 Z M20.0066,21.0987 C20.0066,21.1012 20.0061,21.1032 20.0061,21.1057 L20.0061,21.1012 L20.0061,21.1072 C20.0061,21.1087 20.0051,21.1107 20.0051,21.1117 C20.0046,21.1092 20.0046,21.1067 20.0041,21.1042 L20.0066,21.0987 C20.0586,20.4672 20.2476,19.8057 20.5921,19.0482 C20.6251,19.1022 20.6591,19.1542 20.6946,19.2052 C20.3691,19.8457 20.1261,20.4702 20.0066,21.0987 L20.0066,21.0987 Z M20.1726,21.5927 C20.1701,21.5622 20.1681,21.5322 20.1651,21.5017 C20.1661,21.4977 20.1661,21.4922 20.1661,21.4882 C20.1661,21.4912 20.1661,21.4947 20.1651,21.4987 C20.1646,21.4947 20.1646,21.4912 20.1646,21.4872 L20.1681,21.4817 C20.2381,20.8452 20.4536,20.1762 20.8396,19.3977 C20.8781,19.4447 20.9166,19.4892 20.9571,19.5322 C20.9636,19.5397 20.9701,19.5467 20.9756,19.5537 C20.5941,20.2447 20.3071,20.9162 20.1726,21.5927 L20.1726,21.5927 Z M21.3146,20.1652 C21.2791,20.1357 21.2386,20.1102 21.1846,20.0452 C20.7801,20.7392 20.4761,21.4107 20.3331,22.0907 C20.3311,22.0222 20.3281,21.9537 20.3246,21.8852 C20.3251,21.8792 20.3261,21.8742 20.3261,21.8682 C20.3261,21.8722 20.3251,21.8767 20.3241,21.8812 L20.3241,21.8697 L20.3281,21.8647 C20.4151,21.2527 20.6431,20.6097 21.0386,19.8572 C21.2146,20.0272 21.3871,20.2012 21.5571,20.3782 C21.4771,20.3067 21.3966,20.2352 21.3146,20.1652 L21.3146,20.1652 Z M21.5061,20.6692 C21.4701,20.6427 21.4306,20.6222 21.3786,20.5647 C20.9561,21.2522 20.6351,21.9172 20.4846,22.5922 C20.4836,22.5927 20.4836,22.5937 20.4826,22.5957 C20.4831,22.5692 20.4831,22.5417 20.4831,22.5152 C20.4836,22.4327 20.4836,22.3502 20.4836,22.2677 C20.4851,22.2617 20.4851,22.2557 20.4861,22.2492 C20.4851,22.2527 20.4851,22.2572 20.4836,22.2622 L20.4836,22.2522 L20.4876,22.2467 C20.5926,21.6657 20.8301,21.0537 21.2306,20.3352 C21.5346,20.5962 21.8301,20.8712 22.1201,21.1507 C21.9191,20.9857 21.7146,20.8247 21.5061,20.6692 L21.5061,20.6692 Z M21.6966,21.1722 C21.6616,21.1507 21.6221,21.1347 21.5721,21.0847 C21.1571,21.7237 20.8331,22.3422 20.6621,22.9702 C20.6576,22.9717 20.6571,22.9972 20.6531,22.9997 C20.6356,23.1637 20.6176,23.3272 20.6001,23.4912 C20.6036,23.4597 20.6056,23.4277 20.6071,23.3952 C20.6106,23.2272 20.6201,23.0552 20.6301,22.8887 C20.6336,22.8092 20.6386,22.7307 20.6416,22.6512 C20.6436,22.6422 20.6451,22.6352 20.6461,22.6297 L20.6471,22.6287 C20.7696,22.0782 21.0171,21.4982 21.4221,20.8152 C21.8676,21.1457 22.2976,21.5107 22.7151,21.8782 C22.3836,21.6317 22.0466,21.3927 21.6966,21.1722 L21.6966,21.1722 Z M18.9701,25.1542 C18.9976,25.1557 19.0296,25.1567 19.0626,25.1567 C19.3106,25.1567 19.5721,25.0972 19.8191,24.9852 C20.3276,24.7532 20.6841,24.2592 20.7276,23.7262 C20.7411,23.5687 20.7581,23.4087 20.7766,23.2532 C20.7846,23.1797 20.7926,23.1062 20.8006,23.0327 C20.8026,23.0237 20.8036,23.0167 20.8051,23.0112 L20.8066,23.0097 C20.9471,22.4917 21.2056,21.9447 21.6136,21.2977 C21.6146,21.2977 21.6156,21.2987 21.6171,21.2997 C22.1936,21.6622 22.7456,22.0837 23.2801,22.4982 C22.8266,22.2052 22.3676,21.9217 21.8871,21.6762 C21.8531,21.6587 21.8141,21.6467 21.7656,21.6042 C21.3576,22.1952 21.0301,22.7672 20.8396,23.3482 C20.8351,23.3507 20.8336,23.3732 20.8296,23.3752 C20.7921,23.5957 20.7491,23.8157 20.7166,24.0372 C20.6561,24.4497 20.3651,24.8792 19.9071,25.0917 C19.6661,25.2027 19.4236,25.2542 19.2036,25.2542 C19.1926,25.2542 19.1806,25.2542 19.1701,25.2537 C18.9266,25.2537 18.7286,25.1912 18.5671,25.0877 C18.5546,25.0797 18.5421,25.0722 18.5291,25.0642 C18.6646,25.1177 18.8106,25.1482 18.9701,25.1542 L18.9701,25.1542 Z M18.7701,24.9202 C18.8151,24.9252 18.8656,24.9277 18.9166,24.9277 C19.1661,24.9277 19.4281,24.8687 19.6756,24.7577 C20.1806,24.5302 20.5401,24.0387 20.5986,23.5102 C20.5911,23.5782 20.5841,23.6462 20.5781,23.7142 C20.5411,24.1612 20.2431,24.6272 19.7576,24.8492 C19.5201,24.9567 19.2816,25.0067 19.0626,25.0067 C19.0331,25.0067 19.0046,25.0062 18.9756,25.0042 C18.7741,24.9972 18.6036,24.9467 18.4596,24.8647 C18.5566,24.8952 18.6606,24.9132 18.7701,24.9202 L18.7701,24.9202 Z M18.2961,24.4412 C18.3186,24.4457 18.3406,24.4502 18.3651,24.4527 C18.4461,24.4652 18.5306,24.4717 18.6156,24.4717 C18.8731,24.4717 19.1336,24.4157 19.3891,24.3027 C19.8126,24.1162 20.1291,23.7657 20.2761,23.3517 C20.1901,23.7717 19.9001,24.1667 19.4581,24.3627 C19.2236,24.4667 18.9876,24.5157 18.7681,24.5157 C18.7061,24.5157 18.6461,24.5122 18.5871,24.5042 C18.4816,24.4942 18.3846,24.4727 18.2961,24.4412 L18.2961,24.4412 Z M18.5666,24.6867 C18.6321,24.6947 18.6996,24.6992 18.7681,24.6992 C19.0226,24.6992 19.2796,24.6422 19.5326,24.5302 C19.9836,24.3292 20.3136,23.9312 20.4341,23.4747 C20.3906,23.9302 20.0906,24.3877 19.6076,24.6057 C19.3726,24.7112 19.1356,24.7607 18.9166,24.7607 C18.8711,24.7607 18.8256,24.7582 18.7811,24.7547 C18.6286,24.7437 18.4936,24.7092 18.3746,24.6542 C18.4361,24.6687 18.5006,24.6802 18.5666,24.6867 L18.5666,24.6867 Z M18.4616,24.2452 C18.7221,24.2452 18.9861,24.1882 19.2456,24.0752 C19.6406,23.9037 19.9441,23.5857 20.1096,23.2072 C19.9971,23.5932 19.7166,23.9402 19.3086,24.1197 C19.0731,24.2232 18.8376,24.2717 18.6156,24.2717 C18.5396,24.2717 18.4646,24.2657 18.3926,24.2547 C18.3491,24.2492 18.3066,24.2417 18.2656,24.2322 C18.3301,24.2397 18.3956,24.2452 18.4616,24.2452 L18.4616,24.2452 Z M18.3056,24.0187 C18.5706,24.0187 18.8391,23.9612 19.1026,23.8482 C19.4571,23.6952 19.7396,23.4297 19.9181,23.1082 C19.7791,23.4372 19.5176,23.7207 19.1591,23.8767 C18.9221,23.9797 18.6846,24.0282 18.4616,24.0282 C18.4046,24.0282 18.3506,24.0237 18.2971,24.0182 C18.2991,24.0182 18.3021,24.0187 18.3056,24.0187 L18.3056,24.0187 Z M18.9581,23.6212 C19.2656,23.4897 19.5171,23.2782 19.6991,23.0207 C19.5471,23.2832 19.3121,23.5027 19.0106,23.6342 C18.7706,23.7367 18.5311,23.7852 18.3056,23.7852 L18.2976,23.7852 C18.5181,23.7672 18.7396,23.7142 18.9581,23.6212 L18.9581,23.6212 Z M18.7056,23.1497 C18.8336,23.0927 18.9531,23.0217 19.0616,22.9397 C18.9561,23.0227 18.8396,23.0927 18.7111,23.1477 C18.7091,23.1482 18.7076,23.1492 18.7056,23.1497 L18.7056,23.1497 Z M18.8151,23.3937 C19.0756,23.2827 19.2976,23.1127 19.4731,22.9057 C19.3206,23.1117 19.1141,23.2827 18.8601,23.3907 C18.7161,23.4522 18.5721,23.4922 18.4301,23.5162 C18.5586,23.4877 18.6876,23.4472 18.8151,23.3937 L18.8151,23.3937 Z M22.0786,22.1792 C22.0441,22.1657 22.0061,22.1587 21.9596,22.1237 C21.5586,22.6657 21.2276,23.1927 21.0166,23.7257 C21.0121,23.7287 21.0101,23.7487 21.0061,23.7512 C20.9556,23.9542 20.9006,24.1557 20.8551,24.3602 C20.7711,24.7377 20.4876,25.1312 20.0566,25.3347 C19.8186,25.4457 19.5811,25.4997 19.3641,25.5037 C19.3456,25.5042 19.3266,25.5042 19.3081,25.5042 C19.1046,25.5042 18.9326,25.4602 18.7891,25.3857 C18.3366,25.1522 17.8746,24.9407 17.4176,24.7172 C17.1296,24.5777 16.8406,24.4372 16.5536,24.2962 C16.1561,24.8312 15.8296,25.3522 15.6181,25.8782 C15.5326,26.0897 15.5016,26.2922 15.4511,26.4982 C15.3936,26.7332 15.2751,26.9662 15.0556,27.1877 C14.3026,27.6517 13.5286,27.8832 12.7501,27.8832 C12.0951,27.8832 11.4381,27.7197 10.7856,27.3927 C10.0941,27.0492 9.3986,26.6937 8.7001,26.3272 C6.7041,25.2847 4.7771,24.1407 2.9191,22.9117 C1.4796,21.9132 0.6951,20.4917 0.6056,18.7012 C0.5206,17.1162 0.4491,15.5307 0.3721,13.9452 C0.2891,12.3587 0.1976,10.7722 0.1241,9.1852 C0.0936,8.5382 0.1541,7.9402 0.2971,7.3917 C0.5621,6.3722 1.1781,5.5217 2.1676,4.8497 C2.1831,4.8382 2.1981,4.8272 2.2146,4.8157 C2.1871,4.8367 2.1581,4.8567 2.1311,4.8777 C1.1591,5.5552 0.5381,6.4277 0.2861,7.4692 C0.1511,8.0292 0.1001,8.6337 0.1356,9.2672 C0.1936,10.3207 0.2601,11.3917 0.3251,12.4277 C0.3576,12.9307 0.3881,13.4332 0.4191,13.9362 C0.4456,14.4012 0.4721,14.8667 0.4981,15.3327 C0.5586,16.4012 0.6206,17.5057 0.6851,18.5922 C0.7931,20.3882 1.5711,21.8152 3.0001,22.8332 C4.8236,24.0652 6.7146,25.1867 8.6216,26.1687 C9.3031,26.5207 9.9866,26.8637 10.6541,27.1882 C11.2931,27.5012 11.9426,27.6592 12.5876,27.6592 C13.3801,27.6592 14.1661,27.4197 14.9216,26.9467 L14.9476,26.9257 C15.1781,26.6827 15.3156,26.4142 15.3671,26.1062 C15.3776,26.0457 15.3861,25.9867 15.3941,25.9272 C15.4171,25.7647 15.4391,25.6107 15.4921,25.4522 C15.6531,24.9692 15.9191,24.4627 16.3221,23.8672 C16.5341,23.9977 16.7466,24.1277 16.9586,24.2572 L17.0961,24.3427 C17.2571,24.4412 17.4181,24.5387 17.5796,24.6362 C17.8811,24.8182 18.1936,25.0067 18.4946,25.2002 C18.6891,25.3242 18.9156,25.3872 19.1701,25.3872 C19.1786,25.3877 19.1911,25.3877 19.2036,25.3877 C19.4516,25.3877 19.7146,25.3272 19.9631,25.2127 C20.4301,24.9967 20.7771,24.5427 20.8481,24.0567 C20.8696,23.9097 20.8966,23.7597 20.9226,23.6147 C20.9346,23.5477 20.9466,23.4802 20.9581,23.4132 C20.9616,23.4042 20.9636,23.3967 20.9646,23.3912 L20.9651,23.3897 C21.1256,22.9057 21.3926,22.3932 21.8036,21.7842 C21.8051,21.7842 21.8056,21.7847 21.8066,21.7852 C21.8136,21.7887 21.8196,21.7917 21.8266,21.7947 C22.4416,22.1087 23.0331,22.4947 23.6046,22.8677 C23.6816,22.9177 23.7581,22.9677 23.8346,23.0172 C23.2596,22.7162 22.6831,22.4157 22.0786,22.1792 L22.0786,22.1792 Z M3.7756,21.3727 C3.1056,20.7237 2.6291,19.9527 2.3486,19.0697 C2.6406,19.9467 3.1181,20.7177 3.7756,21.3727 L3.7756,21.3727 Z M3.8671,21.7887 C2.7836,20.8867 2.1311,19.7092 1.9206,18.2892 C2.1601,19.6927 2.8146,20.8662 3.8726,21.7787 L3.8811,21.7847 C4.1371,21.9867 4.3991,22.1807 4.6621,22.3702 C4.3941,22.1807 4.1281,21.9882 3.8671,21.7887 L3.8671,21.7887 Z M8.5041,24.8602 C9.1021,25.1427 9.6951,25.4062 10.2656,25.6437 C10.7651,25.8547 11.2716,25.9617 11.7696,25.9617 C12.5216,25.9617 13.2541,25.7207 13.9491,25.2442 L13.9946,25.2022 C14.2081,24.9402 14.3321,24.6512 14.3686,24.3392 C14.3706,24.3682 14.3726,24.3972 14.3741,24.4267 C14.3896,24.7682 14.2951,25.1032 14.0316,25.4192 C13.3536,25.8747 12.6486,26.1012 11.9336,26.1012 C11.4326,26.1012 10.9271,25.9897 10.4226,25.7677 C9.8251,25.5107 9.2221,25.2342 8.6126,24.9412 C6.8661,24.1057 5.2321,23.1072 3.7091,21.9757 C2.5061,21.0072 1.8211,19.7077 1.6711,18.1187 C1.6486,17.8772 1.6261,17.6372 1.6041,17.3952 C1.6256,17.6057 1.6471,17.8147 1.6691,18.0247 C1.8376,19.6347 2.5301,20.9572 3.7286,21.9552 L3.7356,21.9612 C5.2341,23.1047 6.8376,24.0802 8.5041,24.8602 L8.5041,24.8602 Z M10.1906,25.3352 C10.6606,25.5267 11.1361,25.6242 11.6046,25.6242 C12.3486,25.6242 13.0721,25.3817 13.7556,24.9027 L13.8041,24.8572 C13.9926,24.6197 14.1126,24.3617 14.1621,24.0857 C14.1746,24.4232 14.0806,24.7527 13.8271,25.0652 C13.1636,25.5202 12.4721,25.7452 11.7696,25.7452 C11.2991,25.7452 10.8246,25.6442 10.3496,25.4432 C9.7716,25.2027 9.1866,24.9422 8.5956,24.6642 C8.3146,24.5327 8.0381,24.3947 7.7631,24.2532 C8.0011,24.3727 8.2401,24.4887 8.4811,24.5987 C9.0606,24.8662 9.6361,25.1137 10.1906,25.3352 L10.1906,25.3352 Z M10.1146,25.0267 C10.5551,25.1992 11.0016,25.2862 11.4401,25.2862 C12.1771,25.2862 12.8916,25.0427 13.5631,24.5612 L13.6141,24.5117 C13.7851,24.2927 13.8971,24.0562 13.9531,23.8057 C13.9491,24.1172 13.8521,24.4212 13.6221,24.7117 C12.9741,25.1652 12.2961,25.3902 11.6046,25.3902 C11.1651,25.3902 10.7216,25.2992 10.2766,25.1182 C9.8181,24.9352 9.3536,24.7362 8.8851,24.5252 C9.3031,24.7067 9.7161,24.8747 10.1146,25.0267 L10.1146,25.0267 Z M11.2751,24.9497 C12.0061,24.9497 12.7116,24.7037 13.3701,24.2197 L13.4236,24.1662 C13.5751,23.9682 13.6796,23.7567 13.7411,23.5347 C13.7211,23.8177 13.6226,24.0937 13.4171,24.3582 C12.7841,24.8117 12.1186,25.0362 11.4401,25.0362 C11.0316,25.0362 10.6181,24.9552 10.2041,24.7937 C10.0081,24.7182 9.8106,24.6397 9.6121,24.5592 C9.7561,24.6147 9.9001,24.6682 10.0406,24.7192 C10.4506,24.8717 10.8666,24.9497 11.2751,24.9497 L11.2751,24.9497 Z M11.1091,24.6132 C11.8346,24.6132 12.5306,24.3657 13.1776,23.8772 L13.2341,23.8207 C13.3641,23.6477 13.4606,23.4647 13.5246,23.2737 C13.4901,23.5237 13.3916,23.7682 13.2121,24.0042 C12.5936,24.4582 11.9421,24.6827 11.2751,24.6827 C10.8976,24.6827 10.5151,24.6107 10.1316,24.4682 C10.1106,24.4607 10.0896,24.4527 10.0691,24.4452 C10.4161,24.5562 10.7656,24.6132 11.1091,24.6132 L11.1091,24.6132 Z M10.9421,24.2782 C11.6631,24.2782 12.3506,24.0272 12.9866,23.5337 L13.0441,23.4752 C13.1556,23.3227 13.2406,23.1637 13.3041,22.9992 C13.2606,23.2212 13.1651,23.4397 13.0066,23.6507 C12.4046,24.1057 11.7651,24.3297 11.1091,24.3297 C10.8056,24.3297 10.4991,24.2827 10.1906,24.1867 C10.4416,24.2467 10.6936,24.2782 10.9421,24.2782 L10.9421,24.2782 Z M10.7746,23.9437 C11.4911,23.9437 12.1721,23.6902 12.7961,23.1907 L12.8541,23.1297 C12.9401,23.0102 13.0121,22.8872 13.0696,22.7607 C13.0176,22.9432 12.9306,23.1227 12.8016,23.2967 C12.2146,23.7532 11.5881,23.9782 10.9421,23.9782 C10.7426,23.9782 10.5406,23.9542 10.3381,23.9112 C10.4846,23.9317 10.6306,23.9437 10.7746,23.9437 L10.7746,23.9437 Z M12.6901,18.9922 C12.7226,18.6407 12.7861,18.2802 12.8841,17.9022 C12.9006,17.9427 12.9171,17.9832 12.9336,18.0242 C12.8306,18.3482 12.7491,18.6707 12.6901,18.9922 L12.6901,18.9922 Z M12.9141,19.7632 C12.9401,19.3572 13.0096,18.9397 13.1271,18.4987 C13.1471,18.5487 13.1671,18.5982 13.1871,18.6482 C13.0661,19.0212 12.9726,19.3927 12.9141,19.7632 L12.9141,19.7632 Z M13.1421,20.5232 C13.1561,20.0542 13.2351,19.5707 13.3791,19.0547 C13.4061,19.1032 13.4346,19.1507 13.4636,19.1977 C13.3116,19.6417 13.2016,20.0817 13.1421,20.5232 L13.1421,20.5232 Z M13.3771,21.2402 C13.3771,21.2267 13.3761,21.2122 13.3761,21.1987 C13.3811,20.6542 13.4766,20.0937 13.6686,19.4827 C13.7066,19.5302 13.7466,19.5752 13.7876,19.6187 C13.5821,20.1627 13.4386,20.7002 13.3771,21.2402 L13.3771,21.2402 Z M13.6191,21.8772 C13.6131,21.8092 13.6101,21.7407 13.6116,21.6727 C13.6301,21.0997 13.7531,20.5052 13.9876,19.8502 C14.0016,19.8647 14.0141,19.8797 14.0281,19.8937 C14.0611,19.9372 14.0946,19.9782 14.1291,20.0187 C13.8666,20.6437 13.6856,21.2587 13.6191,21.8772 L13.6191,21.8772 Z M13.8631,22.4902 C13.8486,22.3747 13.8406,22.2607 13.8471,22.1462 C13.8811,21.5477 14.0306,20.9262 14.3131,20.2282 C14.3631,20.2887 14.4151,20.3467 14.4696,20.4017 C14.4736,20.4072 14.4786,20.4122 14.4826,20.4182 C14.1581,21.1167 13.9356,21.7997 13.8631,22.4902 L13.8631,22.4902 Z M14.1036,23.0682 L14.1036,23.0687 C14.0831,22.9167 14.0701,22.7682 14.0831,22.6197 C14.1341,21.9997 14.3181,21.3517 14.6511,20.6122 C14.6576,20.6197 14.6651,20.6277 14.6716,20.6347 C14.7236,20.7057 14.7801,20.7717 14.8396,20.8347 C14.4561,21.5897 14.1876,22.3237 14.1036,23.0682 L14.1036,23.0682 Z M14.3556,23.5367 C14.3486,23.5862 14.3436,23.6362 14.3411,23.6852 C14.3171,23.4817 14.2966,23.2877 14.3181,23.0927 C14.3901,22.4582 14.6031,21.7957 14.9836,21.0287 C15.0536,21.1117 15.1231,21.1937 15.1936,21.2762 C14.7711,22.0432 14.4656,22.7842 14.3556,23.5367 L14.3556,23.5367 Z M15.4766,21.8597 C15.0526,22.5877 14.7391,23.2912 14.6081,24.0047 C14.5551,24.2912 14.5886,24.5632 14.5896,24.8407 C14.5901,25.1612 14.4911,25.4752 14.2366,25.7727 C13.5431,26.2292 12.8246,26.4567 12.0971,26.4567 C11.5661,26.4567 11.0296,26.3352 10.4951,26.0932 C9.8791,25.8182 9.2566,25.5257 8.6306,25.2182 C6.8341,24.3412 5.1406,23.3142 3.5506,22.1627 C2.3001,21.1887 1.5971,19.8647 1.4581,18.2347 C1.3886,17.4237 1.3211,16.6127 1.2536,15.8017 C1.3256,16.5802 1.3986,17.3587 1.4716,18.1377 C1.6281,19.7852 2.3386,21.1297 3.5841,22.1322 L3.5896,22.1367 C5.1526,23.2977 6.8136,24.3022 8.5266,25.1217 C9.1426,25.4182 9.7541,25.6972 10.3426,25.9517 C10.8701,26.1832 11.4061,26.3007 11.9336,26.3007 C12.6926,26.3007 13.4356,26.0602 14.1426,25.5852 L14.1851,25.5472 C14.4621,25.2152 14.5931,24.8352 14.5736,24.4172 C14.5696,24.3317 14.5631,24.2472 14.5561,24.1652 C14.5401,23.9587 14.5246,23.7632 14.5536,23.5657 C14.6421,22.9597 14.8651,22.3272 15.2516,21.5912 C15.4106,21.7627 15.5706,21.9342 15.7316,22.1057 C15.6461,22.0232 15.5616,21.9417 15.4766,21.8597 L15.4766,21.8597 Z M15.7461,22.4692 C15.3291,23.1482 15.0121,23.8067 14.8601,24.4732 C14.7986,24.7407 14.8166,24.9952 14.8051,25.2547 C14.7911,25.5542 14.6871,25.8477 14.4411,26.1262 C13.7336,26.5842 13.0011,26.8127 12.2606,26.8127 C11.6986,26.8127 11.1316,26.6812 10.5676,26.4182 C9.9331,26.1257 9.2926,25.8182 8.6481,25.4957 C6.8021,24.5767 5.0491,23.5207 3.3926,22.3502 C2.0951,21.3697 1.3721,20.0212 1.2446,18.3517 C1.1376,16.9492 1.0351,15.5467 0.9311,14.1452 L1.0146,15.1502 C1.1016,16.1837 1.1871,17.2177 1.2756,18.2512 C1.4191,19.9367 2.1471,21.3017 3.4386,22.3077 L3.4436,22.3122 C5.0716,23.4897 6.7896,24.5232 8.5496,25.3832 C9.1846,25.6947 9.8141,25.9902 10.4201,26.2607 C10.9761,26.5127 11.5406,26.6397 12.0971,26.6397 C12.8646,26.6397 13.6181,26.3997 14.3371,25.9257 L14.3756,25.8917 C14.6406,25.5832 14.7741,25.2297 14.7731,24.8402 C14.7731,24.7612 14.7696,24.6827 14.7676,24.6062 C14.7601,24.4107 14.7536,24.2262 14.7881,24.0382 C14.8941,23.4617 15.1281,22.8587 15.5196,22.1557 C15.7181,22.3477 15.9176,22.5397 16.1166,22.7317 L16.2861,22.8947 C16.3956,23.0002 16.5056,23.1042 16.6151,23.2092 C16.3256,22.9627 16.0356,22.7157 15.7461,22.4692 L15.7461,22.4692 Z M18.1136,24.8047 C17.7986,24.6117 17.4821,24.4222 17.1661,24.2292 C16.8726,24.0487 16.5781,23.8682 16.2841,23.6872 C15.8811,24.2707 15.5576,24.8367 15.3656,25.4097 C15.2881,25.6407 15.2736,25.8592 15.2356,26.0842 C15.1931,26.3407 15.0791,26.5937 14.8511,26.8337 C14.1131,27.2957 13.3526,27.5262 12.5876,27.5262 C11.9636,27.5262 11.3361,27.3732 10.7136,27.0682 C10.0406,26.7417 9.3626,26.4017 8.6826,26.0502 C6.7361,25.0482 4.8676,23.9342 3.0771,22.7247 C1.6846,21.7317 0.9226,20.3352 0.8186,18.5842 C0.7261,17.0322 0.6406,15.4802 0.5521,13.9282 C0.4821,12.7762 0.4071,11.6252 0.3391,10.4732 C0.3836,11.1322 0.4306,11.7907 0.4766,12.4347 C0.5121,12.9302 0.5476,13.4257 0.5826,13.9212 C0.6126,14.3847 0.6436,14.8492 0.6726,15.3137 C0.7406,16.3507 0.8106,17.4232 0.8811,18.4787 C1.0016,20.2377 1.7636,21.6442 3.1471,22.6587 C4.9066,23.8737 6.7391,24.9662 8.5976,25.9072 C9.2656,26.2467 9.9311,26.5737 10.5761,26.8787 C11.1866,27.1707 11.8091,27.3192 12.4241,27.3192 C13.2086,27.3192 13.9836,27.0797 14.7266,26.6067 L14.7566,26.5812 C14.9966,26.3187 15.1351,26.0172 15.1696,25.6847 C15.1761,25.6187 15.1811,25.5527 15.1866,25.4867 C15.1981,25.3137 15.2111,25.1497 15.2571,24.9817 C15.4011,24.4667 15.6551,23.9267 16.0546,23.2937 C16.2266,23.4192 16.3976,23.5452 16.5676,23.6707 L16.8261,23.8607 C16.9901,23.9817 17.1561,24.1017 17.3206,24.2212 C17.5831,24.4107 17.8511,24.6067 18.1136,24.8047 L18.1136,24.8047 Z M16.9151,23.7402 C16.6151,23.5197 16.3151,23.2987 16.0146,23.0777 C15.6046,23.7097 15.2846,24.3217 15.1131,24.9412 C15.0436,25.1907 15.0451,25.4277 15.0201,25.6697 C14.9921,25.9472 14.8826,26.2212 14.6461,26.4802 C13.9226,26.9402 13.1771,27.1692 12.4241,27.1692 C11.8306,27.1692 11.2346,27.0267 10.6401,26.7427 C9.9866,26.4332 9.3271,26.1097 8.6651,25.7732 C6.7691,24.8127 4.9586,23.7272 3.2351,22.5377 C1.8901,21.5512 1.1476,20.1787 1.0316,18.4677 C0.9281,16.9487 0.8321,15.4297 0.7331,13.9107 C0.6971,13.4052 0.6601,12.8997 0.6241,12.3942 C0.6256,12.4122 0.6276,12.4312 0.6291,12.4497 C0.6686,12.9347 0.7081,13.4212 0.7461,13.9067 C0.7786,14.3442 0.8111,14.7832 0.8436,15.2212 C0.9201,16.2512 0.9991,17.3167 1.0786,18.3647 C1.2101,20.0872 1.9551,21.4727 3.2921,22.4832 L3.2971,22.4862 C4.9896,23.6822 6.7651,24.7452 8.5731,25.6452 C9.2236,25.9702 9.8711,26.2812 10.4981,26.5692 C11.0811,26.8417 11.6741,26.9797 12.2606,26.9797 C13.0361,26.9797 13.8001,26.7397 14.5321,26.2662 L14.5661,26.2372 C14.8186,25.9512 14.9546,25.6232 14.9716,25.2627 C14.9746,25.1902 14.9761,25.1182 14.9771,25.0462 C14.9801,24.8622 14.9826,24.6877 15.0231,24.5102 C15.1476,23.9637 15.3916,23.3922 15.7876,22.7232 C15.9531,22.8652 16.1201,23.0072 16.2861,23.1482 L16.5561,23.3777 C16.7236,23.5212 16.8926,23.6632 17.0616,23.8052 C17.1786,23.9042 17.2986,24.0047 17.4176,24.1057 C17.2501,23.9842 17.0826,23.8627 16.9151,23.7402 L16.9151,23.7402 Z M10.6056,23.6107 C11.3201,23.6107 11.9936,23.3537 12.6056,22.8462 L12.6636,22.7837 C12.7261,22.6967 12.7796,22.6077 12.8271,22.5172 C12.7746,22.6612 12.6986,22.8037 12.5971,22.9432 C12.0256,23.4017 11.4101,23.6272 10.7746,23.6272 C10.6646,23.6272 10.5536,23.6177 10.4426,23.6047 C10.4976,23.6077 10.5511,23.6107 10.6056,23.6107 L10.6056,23.6107 Z M12.4711,18.2027 C12.5081,17.9112 12.5631,17.6122 12.6416,17.3022 C12.6541,17.3342 12.6676,17.3662 12.6806,17.3987 C12.5971,17.6677 12.5271,17.9357 12.4711,18.2027 L12.4711,18.2027 Z M12.4156,22.5012 L12.4731,22.4382 C12.5051,22.3937 12.5336,22.3482 12.5621,22.3032 C12.5156,22.3992 12.4601,22.4957 12.3921,22.5897 C11.8356,23.0512 11.2321,23.2767 10.6056,23.2767 C10.5926,23.2767 10.5806,23.2762 10.5686,23.2757 C11.2331,23.2447 11.8536,22.9852 12.4156,22.5012 L12.4156,22.5012 Z M12.2626,17.3792 C12.2971,17.1587 12.3426,16.9327 12.3996,16.7022 C12.4091,16.7247 12.4186,16.7477 12.4271,16.7702 C12.3651,16.9737 12.3096,17.1772 12.2626,17.3792 L12.2626,17.3792 Z M12.0646,16.5262 C12.0911,16.3852 12.1231,16.2427 12.1571,16.0987 C12.1631,16.1117 12.1681,16.1252 12.1736,16.1382 C12.1341,16.2682 12.0981,16.3972 12.0646,16.5262 L12.0646,16.5262 Z M12.2276,22.1557 L12.2716,22.1062 C12.2456,22.1492 12.2176,22.1932 12.1881,22.2357 C11.7321,22.6277 11.2391,22.8487 10.7261,22.9092 C11.2651,22.8182 11.7681,22.5662 12.2276,22.1557 L12.2276,22.1557 Z M11.8796,15.6437 C11.8901,15.5932 11.9021,15.5427 11.9146,15.4917 C11.9156,15.4962 11.9171,15.5007 11.9191,15.5047 C11.9056,15.5512 11.8921,15.5977 11.8796,15.6437 L11.8796,15.6437 Z M12.0191,21.8272 C12.0066,21.8457 11.9956,21.8642 11.9831,21.8822 C11.6486,22.1817 11.2911,22.3832 10.9181,22.4902 C11.3101,22.3622 11.6786,22.1412 12.0191,21.8272 L12.0191,21.8272 Z M20.3186,4.2022 C20.0051,4.2742 19.6826,4.3547 19.2851,4.4587 L19.0346,4.1887 C18.5366,3.6552 18.0226,3.1032 17.5126,2.5627 C17.4451,2.4917 17.3686,2.4167 17.2826,2.3407 C16.9926,2.0647 16.6546,1.8442 16.2801,1.6857 C16.1206,1.6147 15.9501,1.5547 15.7771,1.5087 C15.4391,1.4152 15.1206,1.3667 14.8341,1.3667 C14.7811,1.3667 14.7301,1.3682 14.6796,1.3717 C14.3366,1.2942 13.9961,1.2557 13.6686,1.2557 C13.1941,1.2557 12.7241,1.3372 12.2691,1.4987 C11.5266,1.7627 10.8161,2.2057 10.0996,2.8522 C10.0941,2.8567 10.0891,2.8612 10.0836,2.8657 C9.8636,2.8927 9.6416,2.9187 9.4221,2.9442 C9.1411,2.9772 8.8601,3.0117 8.5801,3.0462 C8.0296,3.1147 7.4611,3.1852 6.8976,3.2412 C6.3611,3.2942 5.8096,3.4037 5.2506,3.5657 C5.8461,3.3742 6.4031,3.2457 6.9101,3.1657 C7.7826,3.0282 8.6411,2.8637 9.5066,2.7122 C9.7511,2.6697 9.9971,2.6267 10.2416,2.5832 C10.2601,2.5672 10.2781,2.5512 10.2976,2.5352 C11.0216,1.9132 11.7426,1.4952 12.4816,1.2657 C12.8716,1.1442 13.2736,1.0812 13.6906,1.0812 C14.0701,1.0812 14.4626,1.1332 14.8706,1.2427 C14.8816,1.2422 14.8941,1.2422 14.9061,1.2422 C15.2146,1.2422 15.5561,1.3017 15.9201,1.4112 C16.0761,1.4562 16.2336,1.5132 16.3886,1.5852 C16.7371,1.7362 17.0526,1.9402 17.3311,2.1947 C17.4101,2.2622 17.4841,2.3307 17.5536,2.3997 C18.1766,3.0277 18.7951,3.6592 19.4131,4.2892 C19.7946,4.2257 20.1651,4.1682 20.5571,4.1142 C20.8641,4.0712 21.1971,4.0417 21.5691,4.0417 C21.5986,4.0417 21.6301,4.0432 21.6591,4.0432 C21.2026,4.0482 20.7741,4.0982 20.3186,4.2022 L20.3186,4.2022 Z M19.1046,4.7857 L18.8831,4.5352 C18.3871,3.9762 17.8746,3.3977 17.3656,2.8317 C17.2986,2.7562 17.2231,2.6802 17.1351,2.5997 C16.8416,2.3107 16.4971,2.0832 16.1111,1.9242 C15.9461,1.8522 15.7706,1.7937 15.5931,1.7517 C15.2921,1.6742 15.0066,1.6347 14.7466,1.6347 C14.6506,1.6347 14.5561,1.6402 14.4676,1.6507 C14.1886,1.5992 13.9121,1.5737 13.6451,1.5737 C13.1106,1.5737 12.6056,1.6722 12.1006,1.8762 C11.3796,2.1667 10.6921,2.6272 9.9981,3.2832 C9.9971,3.2847 9.9956,3.2857 9.9936,3.2877 C9.7846,3.3002 9.5741,3.3127 9.3656,3.3247 C9.0911,3.3397 8.8181,3.3572 8.5446,3.3747 C8.0101,3.4087 7.4576,3.4442 6.9101,3.4647 C6.5381,3.4782 6.1561,3.5242 5.7651,3.6017 C6.1731,3.5052 6.5576,3.4422 6.9131,3.4067 C7.7626,3.3227 8.5986,3.2087 9.4416,3.1102 C9.6786,3.0822 9.9186,3.0537 10.1571,3.0247 C10.1746,3.0087 10.1926,2.9922 10.2111,2.9762 C10.9111,2.3442 11.6096,1.9107 12.3251,1.6562 C12.7551,1.5032 13.1996,1.4222 13.6686,1.4222 C13.9891,1.4222 14.3211,1.4602 14.6661,1.5397 C14.7211,1.5352 14.7771,1.5337 14.8341,1.5337 C15.1111,1.5337 15.4141,1.5807 15.7351,1.6702 C15.8956,1.7122 16.0556,1.7677 16.2146,1.8392 C16.5706,1.9902 16.8911,2.1987 17.1696,2.4637 C17.2486,2.5337 17.3226,2.6052 17.3911,2.6772 C18.0076,3.3307 18.6191,3.9882 19.2316,4.6452 C19.6071,4.5457 19.9686,4.4537 20.3556,4.3652 C20.3616,4.3637 20.3681,4.3627 20.3736,4.3607 C20.2826,4.3857 20.1911,4.4117 20.0981,4.4417 C19.7436,4.5557 19.4141,4.6732 19.1046,4.7857 L19.1046,4.7857 Z M18.7881,4.9507 C18.2761,4.3437 17.7461,3.7157 17.2196,3.1007 C17.1526,3.0232 17.0751,2.9412 16.9876,2.8587 C16.6916,2.5562 16.3396,2.3222 15.9416,2.1622 C15.7731,2.0902 15.5916,2.0332 15.4086,1.9932 C15.1401,1.9302 14.8816,1.8982 14.6461,1.8982 C14.5091,1.8982 14.3781,1.9087 14.2541,1.9302 C14.0401,1.8997 13.8276,1.8842 13.6216,1.8842 C13.0316,1.8842 12.4796,2.0052 11.9296,2.2542 C11.2416,2.5672 10.5791,3.0427 9.9051,3.7077 C9.7076,3.7072 9.5086,3.7067 9.3121,3.7047 C9.1101,3.7032 8.9086,3.7032 8.7071,3.7032 L8.5131,3.7032 L8.3191,3.7032 C7.8761,3.7032 7.4021,3.7022 6.9251,3.6892 C6.8761,3.6872 6.8256,3.6867 6.7746,3.6867 C6.5701,3.6872 6.3616,3.6997 6.1496,3.7212 C6.4191,3.6812 6.6751,3.6567 6.9166,3.6482 C7.7421,3.6172 8.5566,3.5542 9.3756,3.5072 C9.6076,3.4942 9.8396,3.4807 10.0721,3.4667 C10.0896,3.4497 10.1071,3.4332 10.1241,3.4167 C10.8011,2.7762 11.4746,2.3257 12.1691,2.0462 C12.6356,1.8582 13.1236,1.7567 13.6451,1.7567 C13.9091,1.7567 14.1796,1.7827 14.4621,1.8362 C14.5526,1.8242 14.6481,1.8182 14.7466,1.8182 C14.9951,1.8182 15.2661,1.8567 15.5506,1.9297 C15.7146,1.9687 15.8781,2.0227 16.0416,2.0937 C16.4046,2.2432 16.7301,2.4567 17.0086,2.7322 C17.0871,2.8047 17.1621,2.8787 17.2291,2.9542 C17.8401,3.6337 18.4446,4.3182 19.0496,5.0007 C19.2276,4.9362 19.4021,4.8727 19.5781,4.8107 C19.3496,4.9117 19.1281,5.0137 18.9226,5.1107 L18.7881,4.9507 Z M18.6046,5.2637 C18.1046,4.6422 17.5881,3.9997 17.0736,3.3707 C17.0066,3.2892 16.9286,3.2042 16.8401,3.1182 C16.5421,2.8022 16.1836,2.5612 15.7741,2.4017 C15.5966,2.3277 15.4106,2.2717 15.2231,2.2352 C14.9841,2.1837 14.7521,2.1577 14.5371,2.1577 C14.3611,2.1577 14.1936,2.1752 14.0396,2.2102 C13.8901,2.1952 13.7411,2.1877 13.5966,2.1877 C12.9506,2.1877 12.3496,2.3337 11.7586,2.6337 C11.0981,2.9697 10.4621,3.4577 9.8161,4.1267 C9.6311,4.1132 9.4451,4.1002 9.2611,4.0862 C9.0026,4.0672 8.7441,4.0502 8.4851,4.0327 C7.9811,3.9987 7.4596,3.9637 6.9441,3.9142 C6.8056,3.9007 6.6621,3.8947 6.5166,3.8937 C6.6046,3.8892 6.6911,3.8867 6.7746,3.8867 C6.8236,3.8867 6.8716,3.8877 6.9201,3.8887 C7.3891,3.9017 7.8546,3.9037 8.3191,3.9037 C8.4486,3.9037 8.5781,3.9032 8.7071,3.9032 C8.9076,3.9032 9.1091,3.9037 9.3106,3.9047 C9.5351,3.9067 9.7621,3.9072 9.9871,3.9082 C10.0046,3.8912 10.0211,3.8742 10.0386,3.8572 C10.6926,3.2102 11.3411,2.7417 12.0126,2.4367 C12.5146,2.2087 13.0446,2.0842 13.6216,2.0842 C13.8276,2.0842 14.0391,2.1002 14.2571,2.1327 C14.3801,2.1092 14.5101,2.0982 14.6461,2.0982 C14.8711,2.0982 15.1126,2.1292 15.3656,2.1887 C15.5326,2.2252 15.7001,2.2772 15.8671,2.3482 C16.2391,2.4972 16.5686,2.7157 16.8476,3.0012 C16.9261,3.0762 17.0011,3.1527 17.0676,3.2312 C17.6721,3.9372 18.2701,4.6477 18.8681,5.3562 C18.8711,5.3557 18.8731,5.3547 18.8761,5.3532 C18.8301,5.3787 18.7851,5.4057 18.7391,5.4312 L18.6046,5.2637 Z M9.6416,4.9577 C9.4836,4.9227 9.3251,4.8882 9.1686,4.8537 C8.9236,4.7987 8.6801,4.7472 8.4361,4.6942 C8.0096,4.6032 7.5711,4.5082 7.1371,4.4047 C7.8201,4.5142 8.4986,4.6007 9.1791,4.7002 C9.3836,4.7302 9.5896,4.7592 9.7946,4.7877 C9.7436,4.8437 9.6931,4.8992 9.6416,4.9577 L9.6416,4.9577 Z M9.5551,5.3682 C9.4121,5.3257 9.2686,5.2837 9.1266,5.2402 C8.8896,5.1682 8.6536,5.0982 8.4181,5.0287 C8.0871,4.9307 7.7476,4.8302 7.4091,4.7252 C7.9786,4.8557 8.5461,4.9712 9.1136,5.0977 C9.3016,5.1397 9.4916,5.1807 9.6811,5.2212 C9.6396,5.2702 9.5976,5.3177 9.5551,5.3682 L9.5551,5.3682 Z M9.0861,5.6287 C8.8576,5.5397 8.6291,5.4517 8.4006,5.3652 C8.1611,5.2737 7.9186,5.1807 7.6736,5.0847 C8.1321,5.2232 8.5901,5.3562 9.0486,5.4947 C9.2221,5.5482 9.3971,5.5997 9.5711,5.6512 C9.5381,5.6927 9.5041,5.7332 9.4696,5.7762 C9.3411,5.7277 9.2136,5.6782 9.0861,5.6287 L9.0861,5.6287 Z M9.0486,6.0202 C8.8261,5.9127 8.6046,5.8072 8.3821,5.7017 C8.2416,5.6347 8.0976,5.5657 7.9536,5.4972 C8.2971,5.6287 8.6396,5.7592 8.9831,5.8927 C9.1426,5.9552 9.3036,6.0162 9.4646,6.0777 C9.4381,6.1122 9.4121,6.1452 9.3846,6.1812 C9.2726,6.1277 9.1596,6.0742 9.0486,6.0202 L9.0486,6.0202 Z M9.0116,6.4142 C8.7961,6.2882 8.5801,6.1647 8.3651,6.0407 C8.3171,6.0127 8.2666,5.9842 8.2181,5.9562 C8.4506,6.0667 8.6846,6.1777 8.9171,6.2902 C9.0636,6.3607 9.2121,6.4307 9.3596,6.5007 C9.3406,6.5277 9.3211,6.5537 9.3016,6.5812 C9.2041,6.5257 9.1076,6.4702 9.0116,6.4142 L9.0116,6.4142 Z M8.9761,6.8107 C8.8146,6.6997 8.6531,6.5897 8.4916,6.4797 C8.6116,6.5487 8.7326,6.6177 8.8521,6.6877 C8.9851,6.7657 9.1216,6.8427 9.2566,6.9197 C9.2441,6.9392 9.2316,6.9572 9.2181,6.9762 C9.1371,6.9212 9.0566,6.8667 8.9761,6.8107 L8.9761,6.8107 Z M9.0531,7.7462 C9.0531,7.7472 9.0526,7.7477 9.0526,7.7477 C9.0486,7.7437 9.0441,7.7397 9.0391,7.7352 C9.0441,7.7387 9.0486,7.7427 9.0531,7.7462 L9.0531,7.7462 Z M8.9406,7.2102 C8.8851,7.1652 8.8281,7.1207 8.7726,7.0752 C8.7771,7.0787 8.7816,7.0822 8.7866,7.0852 C8.9076,7.1692 9.0311,7.2522 9.1541,7.3352 C9.1481,7.3452 9.1411,7.3547 9.1351,7.3652 C9.0701,7.3142 9.0051,7.2622 8.9406,7.2102 L8.9406,7.2102 Z M11.4661,3.3662 C11.5446,3.3167 11.6221,3.2622 11.7011,3.2172 C12.2646,2.8977 12.8771,2.7167 13.5721,2.7167 C13.6406,2.7167 13.7111,2.7202 13.7816,2.7237 C13.7211,2.7377 13.6621,2.7532 13.6046,2.7722 C13.5851,2.7722 13.5666,2.7717 13.5471,2.7717 C12.7976,2.7717 12.1171,2.9692 11.4661,3.3662 L11.4661,3.3662 Z M13.1721,3.3352 C13.1701,3.3357 13.1671,3.3362 13.1651,3.3367 C13.1171,3.3407 13.0711,3.3477 13.0236,3.3532 C13.0721,3.3467 13.1216,3.3392 13.1721,3.3352 L13.1721,3.3352 Z M12.1251,3.3062 C12.5391,3.1322 12.9856,3.0327 13.4786,3.0237 C13.4476,3.0337 13.4156,3.0427 13.3861,3.0547 C12.9426,3.0682 12.5251,3.1527 12.1251,3.3062 L12.1251,3.3062 Z M16.9276,3.6412 C16.8601,3.5557 16.7821,3.4667 16.6941,3.3777 C16.3926,3.0482 16.0261,2.8002 15.6046,2.6397 C15.4216,2.5657 15.2306,2.5107 15.0371,2.4772 C14.8241,2.4357 14.6151,2.4142 14.4196,2.4142 C14.2066,2.4142 14.0056,2.4397 13.8231,2.4907 C13.7386,2.4862 13.6541,2.4832 13.5721,2.4832 C12.8661,2.4832 12.2156,2.6572 11.5861,3.0137 C10.9506,3.3737 10.3426,3.8742 9.7281,4.5432 C9.5566,4.5187 9.3841,4.4937 9.2136,4.4687 C8.9616,4.4322 8.7101,4.3977 8.4591,4.3632 C7.9696,4.2947 7.4636,4.2247 6.9656,4.1407 C6.9301,4.1347 6.8946,4.1302 6.8586,4.1252 C6.8801,4.1272 6.9021,4.1277 6.9231,4.1302 C7.7016,4.2047 8.4706,4.2447 9.2451,4.3027 C9.4631,4.3192 9.6841,4.3347 9.9031,4.3497 C9.9191,4.3327 9.9361,4.3147 9.9511,4.2977 C10.5826,3.6417 11.2076,3.1572 11.8576,2.8267 C12.3906,2.5552 12.9626,2.4042 13.5966,2.4042 C13.7451,2.4042 13.8976,2.4127 14.0526,2.4297 C14.2036,2.3922 14.3661,2.3747 14.5371,2.3747 C14.7396,2.3747 14.9556,2.3997 15.1816,2.4477 C15.3521,2.4812 15.5231,2.5317 15.6931,2.6027 C16.0736,2.7507 16.4071,2.9737 16.6861,3.2702 C16.7651,3.3477 16.8396,3.4272 16.9051,3.5082 C17.4946,4.2292 18.0761,4.9537 18.6591,5.6782 C18.6246,5.7017 18.5901,5.7252 18.5546,5.7497 L18.4656,5.6332 C17.9641,4.9792 17.4441,4.3037 16.9276,3.6412 L16.9276,3.6412 Z M16.7821,3.9122 C16.7161,3.8242 16.6371,3.7317 16.5476,3.6382 C16.2431,3.2942 15.8686,3.0387 15.4351,2.8782 C15.2471,2.8037 15.0516,2.7507 14.8526,2.7197 C14.6596,2.6852 14.4726,2.6682 14.2976,2.6682 C14.2011,2.6682 14.1096,2.6752 14.0186,2.6852 C14.1461,2.6607 14.2791,2.6477 14.4196,2.6477 C14.6031,2.6477 14.7966,2.6682 14.9966,2.7072 C15.1716,2.7377 15.3456,2.7862 15.5196,2.8567 C15.9071,3.0042 16.2451,3.2322 16.5251,3.5387 C16.6046,3.6187 16.6781,3.7012 16.7431,3.7847 C17.3176,4.5202 17.8836,5.2597 18.4516,5.9987 C18.4246,6.0202 18.3981,6.0422 18.3696,6.0642 L18.3131,5.9867 C17.8136,5.3057 17.2971,4.6017 16.7821,3.9122 L16.7821,3.9122 Z M16.6366,4.1837 C16.5706,4.0912 16.4916,3.9952 16.4016,3.8982 C16.0936,3.5412 15.7121,3.2777 15.2656,3.1167 C15.0716,3.0412 14.8701,2.9892 14.6661,2.9612 C14.5056,2.9362 14.3486,2.9237 14.1996,2.9217 C14.2326,2.9202 14.2641,2.9182 14.2976,2.9182 C14.4611,2.9182 14.6341,2.9347 14.8126,2.9662 C14.9896,2.9937 15.1676,3.0412 15.3451,3.1117 C15.7411,3.2577 16.0846,3.4907 16.3631,3.8077 C16.4431,3.8902 16.5176,3.9757 16.5816,4.0617 C17.1411,4.8112 17.6936,5.5647 18.2466,6.3177 C18.2256,6.3367 18.2051,6.3557 18.1841,6.3752 L18.1591,6.3402 C17.6626,5.6322 17.1486,4.9002 16.6366,4.1837 L16.6366,4.1837 Z M15.9491,4.2412 C15.7091,3.9942 15.4296,3.8007 15.1116,3.6652 C15.4316,3.7947 15.7131,3.9877 15.9491,4.2412 L15.9491,4.2412 Z M16.4916,4.4562 C16.4256,4.3592 16.3466,4.2592 16.2556,4.1592 C15.9441,3.7867 15.5541,3.5162 15.0946,3.3547 C14.9421,3.2962 14.7836,3.2532 14.6221,3.2247 C14.6241,3.2252 14.6261,3.2252 14.6276,3.2257 C14.8091,3.2497 14.9906,3.2952 15.1716,3.3662 C15.5751,3.5112 15.9226,3.7492 16.2021,4.0762 C16.2821,4.1617 16.3566,4.2497 16.4196,4.3387 C16.9521,5.0837 17.4771,5.8322 18.0026,6.5802 C17.9856,6.5922 17.9686,6.6037 17.9531,6.6152 C17.4746,5.9042 16.9826,5.1732 16.4916,4.4562 L16.4916,4.4562 Z M17.4431,6.9702 C17.4406,6.9727 17.4361,6.9747 17.4326,6.9777 C17.3061,6.7732 17.1781,6.5662 17.0501,6.3602 C17.1816,6.5637 17.3121,6.7667 17.4431,6.9702 L17.4431,6.9702 Z M16.6531,5.1982 C17.0106,5.7237 17.3656,6.2507 17.7196,6.7772 C17.7106,6.7842 17.6996,6.7912 17.6896,6.7982 C17.3491,6.2692 17.0011,5.7322 16.6531,5.1982 L16.6531,5.1982 Z M27.0656,10.0262 L27.0241,9.4757 C26.8941,7.7557 26.1401,6.3592 24.6521,5.0792 C24.6171,5.0497 24.5831,5.0192 24.5476,4.9892 C24.3541,4.8202 24.1341,4.6292 23.8986,4.4837 C23.3536,4.1447 22.7621,3.9567 22.0906,3.9102 C21.9161,3.8977 21.7406,3.8917 21.5691,3.8917 C21.2306,3.8917 20.8926,3.9162 20.5366,3.9657 C20.1836,4.0142 19.8406,4.0667 19.4656,4.1287 L19.1446,3.8012 C18.6586,3.3062 18.1571,2.7947 17.6591,2.2942 C17.5906,2.2252 17.5131,2.1537 17.4286,2.0807 C17.1441,1.8197 16.8131,1.6057 16.4491,1.4472 C16.2941,1.3767 16.1296,1.3152 15.9621,1.2672 C15.5781,1.1512 15.2226,1.0922 14.9061,1.0922 L14.8901,1.0922 C14.4826,0.9852 14.0791,0.9307 13.6911,0.9307 C13.2681,0.9307 12.8466,0.9952 12.4371,1.1227 C11.6726,1.3597 10.9416,1.7842 10.1991,2.4212 C10.1906,2.4287 10.1826,2.4357 10.1736,2.4427 C9.9436,2.4837 9.7116,2.5242 9.4811,2.5647 C9.1921,2.6152 8.9051,2.6667 8.6171,2.7187 C8.0511,2.8207 7.4666,2.9262 6.8866,3.0177 C6.1466,3.1342 5.3911,3.3377 4.6401,3.6207 C5.4586,3.2922 6.2221,3.0712 6.9071,2.9247 C7.8016,2.7332 8.6841,2.5177 9.5726,2.3147 C9.8231,2.2577 10.0746,2.2002 10.3261,2.1417 C10.3456,2.1257 10.3641,2.1102 10.3836,2.0942 C11.1346,1.4842 11.8771,1.0792 12.6376,0.8757 C12.9881,0.7817 13.3451,0.7327 13.7136,0.7327 C14.1516,0.7327 14.6041,0.8027 15.0751,0.9462 C15.3901,0.9607 15.7371,1.0327 16.1046,1.1517 C16.2571,1.2002 16.4106,1.2587 16.5631,1.3302 C16.9026,1.4832 17.2146,1.6817 17.4926,1.9252 C17.5701,1.9907 17.6461,2.0567 17.7156,2.1232 C18.3441,2.7242 18.9696,3.3297 19.5946,3.9337 C19.9831,3.9057 20.3601,3.8832 20.7581,3.8632 C20.9171,3.8547 21.0821,3.8497 21.2546,3.8497 C21.5666,3.8497 21.9036,3.8662 22.2766,3.9097 C22.8391,3.9757 23.4151,4.1422 23.9796,4.4907 C24.2421,4.6517 24.4841,4.8662 24.7101,5.0527 C26.1111,6.2077 26.9591,7.5752 27.0811,9.4037 C27.2271,11.6102 27.3731,13.8167 27.5141,16.0232 C27.3671,14.0107 27.2146,11.9947 27.0656,10.0262 L27.0656,10.0262 Z M26.9241,10.6097 L26.8346,9.5557 C26.6921,7.8842 25.9531,6.5032 24.5096,5.2097 C24.4801,5.1827 24.4506,5.1562 24.4206,5.1292 C24.2206,4.9482 23.9946,4.7437 23.7476,4.5902 C23.4796,4.4227 23.2006,4.2947 22.9076,4.2052 C23.2131,4.2932 23.5176,4.4237 23.8196,4.6112 C24.0856,4.7757 24.3291,4.9992 24.5546,5.1927 C25.9016,6.3512 26.7386,7.6942 26.8746,9.4867 C26.9941,11.0727 27.1146,12.6587 27.2326,14.2442 C27.1301,13.0232 27.0266,11.8072 26.9241,10.6097 L26.9241,10.6097 Z M26.6441,9.6357 C26.4906,8.0117 25.7666,6.6467 24.3671,5.3402 L24.2941,5.2707 C24.0891,5.0777 23.8556,4.8587 23.5966,4.6967 C23.5431,4.6632 23.4881,4.6322 23.4336,4.6017 C23.5086,4.6412 23.5846,4.6847 23.6591,4.7317 C23.9291,4.8997 24.1736,5.1322 24.3986,5.3337 C25.6926,6.4927 26.5186,7.8137 26.6681,9.5702 C26.7531,10.5587 26.8366,11.5477 26.9206,12.5367 C26.8706,12.0097 26.8201,11.4842 26.7706,10.9632 L26.6441,9.6357 Z M24.6161,23.1627 C24.8661,23.1627 25.1191,23.1047 25.3671,22.9922 L25.3771,22.9872 C26.0931,22.5972 26.6541,22.0827 27.0476,21.4692 C26.6586,22.0892 26.1006,22.6107 25.3796,23.0072 C25.1396,23.1182 24.9006,23.1692 24.6806,23.1692 C24.6271,23.1692 24.5746,23.1647 24.5236,23.1592 C24.5546,23.1612 24.5856,23.1627 24.6161,23.1627 L24.6161,23.1627 Z M24.3361,5.8662 C25.3546,6.9237 26.0451,8.0967 26.2366,9.5897 C26.0371,8.2432 25.4281,7.0472 24.3361,5.8662 L24.3361,5.8662 Z M25.6011,22.6807 C25.5056,22.7417 25.4066,22.7997 25.3051,22.8557 C25.1851,22.9102 25.0661,22.9497 24.9481,22.9757 C25.0661,22.9472 25.1831,22.9082 25.2986,22.8562 L25.3096,22.8507 C25.4096,22.7967 25.5071,22.7402 25.6011,22.6807 L25.6011,22.6807 Z M24.9856,7.0197 C25.2501,7.4062 25.4731,7.8117 25.6486,8.2442 C25.4776,7.8282 25.2571,7.4227 24.9856,7.0197 L24.9856,7.0197 Z M4.4966,3.5192 C5.3596,3.1462 6.1696,2.8792 6.9036,2.6832 C7.8221,2.4387 8.7261,2.1727 9.6376,1.9177 C9.8951,1.8452 10.1531,1.7727 10.4106,1.7002 C10.4296,1.6847 10.4501,1.6692 10.4691,1.6537 C11.2426,1.0497 12.0106,0.6637 12.7941,0.4857 C13.1021,0.4152 13.4151,0.3787 13.7351,0.3787 C14.2326,0.3787 14.7461,0.4662 15.2791,0.6492 C15.5911,0.6832 15.9316,0.7667 16.2891,0.8927 C16.4386,0.9437 16.5881,1.0042 16.7371,1.0757 C17.0686,1.2297 17.3761,1.4237 17.6536,1.6572 C17.7311,1.7192 17.8066,1.7822 17.8771,1.8462 C18.5131,2.4212 19.1446,3.0002 19.7766,3.5782 C20.1706,3.5852 20.5566,3.5977 20.9596,3.6117 C21.4116,3.6272 21.9041,3.6647 22.4721,3.7597 C23.0236,3.8512 23.5871,4.0307 24.1396,4.3697 C24.3986,4.5277 24.6396,4.7327 24.8661,4.9122 C26.3216,6.0632 27.1831,7.4552 27.2866,9.3207 C27.4551,12.1512 27.6116,14.9827 27.7591,17.8132 C27.5866,15.0087 27.3991,12.1757 27.2156,9.4252 L27.2141,9.3947 C27.0956,7.6262 26.3276,6.2132 24.7951,4.9497 C24.7566,4.9182 24.7176,4.8852 24.6776,4.8522 C24.4796,4.6867 24.2751,4.5157 24.0486,4.3772 C23.5196,4.0502 22.9451,3.8542 22.2921,3.7772 C21.9426,3.7362 21.6036,3.7162 21.2546,3.7162 C21.0911,3.7162 20.9266,3.7212 20.7521,3.7297 C20.3496,3.7502 19.9956,3.7717 19.6446,3.7962 L19.3171,3.4797 C18.8226,3.0022 18.3131,2.5097 17.8076,2.0267 C17.7381,1.9607 17.6611,1.8927 17.5776,1.8227 C17.2951,1.5747 16.9701,1.3672 16.6171,1.2087 C16.4671,1.1382 16.3076,1.0762 16.1446,1.0247 C15.7661,0.9012 15.4136,0.8302 15.0986,0.8142 C14.6281,0.6717 14.1621,0.5997 13.7136,0.5997 C13.3406,0.5997 12.9671,0.6487 12.6026,0.7467 C11.8281,0.9542 11.0746,1.3612 10.2991,1.9907 C10.2876,2.0002 10.2766,2.0097 10.2651,2.0187 C10.0246,2.0747 9.7831,2.1302 9.5426,2.1842 C9.2471,2.2522 8.9521,2.3217 8.6571,2.3907 C8.0761,2.5267 7.4756,2.6672 6.8791,2.7942 C6.0706,2.9667 5.2606,3.2192 4.4716,3.5442 C4.1806,3.6647 3.9011,3.7952 3.6301,3.9342 C3.9136,3.7847 4.2031,3.6467 4.4966,3.5192 L4.4966,3.5192 Z M27.4031,9.3142 C27.3036,7.5227 26.4966,6.0527 24.9386,4.8207 C24.8966,4.7867 24.8526,4.7522 24.8091,4.7177 C24.6161,4.5627 24.4166,4.4022 24.2006,4.2707 C23.6866,3.9557 23.1276,3.7507 22.4916,3.6442 C21.9961,3.5617 21.5111,3.5142 20.9641,3.4952 C20.6031,3.4822 20.2146,3.4702 19.8226,3.4622 L19.4441,3.1167 C18.9571,2.6707 18.4536,2.2107 17.9556,1.7597 C17.8871,1.6977 17.8096,1.6322 17.7266,1.5652 C17.4446,1.3292 17.1281,1.1282 16.7861,0.9697 C16.6386,0.8992 16.4841,0.8357 16.3271,0.7822 C15.9601,0.6532 15.6156,0.5697 15.3056,0.5352 C14.7731,0.3537 14.2441,0.2622 13.7351,0.2622 C13.4111,0.2622 13.0861,0.2987 12.7671,0.3717 C11.9631,0.5547 11.1881,0.9442 10.3976,1.5617 C10.3841,1.5727 10.3701,1.5832 10.3571,1.5942 C10.1066,1.6647 9.8556,1.7352 9.6066,1.8052 C9.3011,1.8907 8.9971,1.9772 8.6931,2.0637 C8.0981,2.2327 7.4836,2.4082 6.8741,2.5707 C6.0461,2.7917 5.2306,3.0747 4.4501,3.4117 C3.5806,3.7902 2.7896,4.2422 2.1001,4.7547 C1.1016,5.4327 0.4571,6.3097 0.1836,7.3627 C0.0361,7.9297 -0.0224,8.5442 0.0076,9.1907 C0.0571,10.2632 0.1161,11.3532 0.1726,12.4077 C0.2006,12.9222 0.2286,13.4367 0.2556,13.9512 C0.2796,14.4497 0.3036,14.9487 0.3271,15.4472 C0.3781,16.5157 0.4306,17.6202 0.4886,18.7072 C0.5806,20.5367 1.3761,21.9837 2.8526,23.0077 C4.7396,24.2567 6.6881,25.4082 8.6461,26.4312 C9.3486,26.7992 10.0511,27.1582 10.7346,27.4977 C11.3991,27.8307 12.0771,28.0002 12.7501,28.0002 C13.5521,28.0002 14.3486,27.7602 15.1166,27.2867 L15.1386,27.2697 C15.3566,27.0497 15.4961,26.8062 15.5636,26.5257 C15.5771,26.4722 15.5886,26.4192 15.6006,26.3667 C15.6346,26.2147 15.6661,26.0707 15.7266,25.9222 C15.9066,25.4727 16.1821,25.0017 16.5896,24.4437 C16.8466,24.5687 17.1031,24.6947 17.3596,24.8192 L17.3656,24.8227 C17.5241,24.8997 17.6821,24.9752 17.8401,25.0507 C18.1351,25.1912 18.4401,25.3372 18.7356,25.4897 C18.9056,25.5767 19.0981,25.6217 19.3081,25.6217 C19.3281,25.6217 19.3481,25.6212 19.3691,25.6202 C19.6091,25.6157 19.8651,25.5537 20.1066,25.4402 C20.5391,25.2362 20.8696,24.8322 20.9686,24.3857 C20.9981,24.2522 21.0331,24.1157 21.0676,23.9837 C21.0836,23.9202 21.1001,23.8567 21.1156,23.7932 C21.1191,23.7842 21.1216,23.7762 21.1236,23.7707 L21.1251,23.7692 C21.3026,23.3192 21.5801,22.8427 21.9941,22.2732 C22.0026,22.2762 22.0086,22.2787 22.0166,22.2812 C22.0226,22.2837 22.0291,22.2852 22.0356,22.2882 C22.6401,22.5237 23.2281,22.8317 23.7971,23.1287 C23.9116,23.1892 24.0271,23.2492 24.1416,23.3087 C24.3121,23.3972 24.5176,23.4432 24.7366,23.4432 C24.9891,23.4432 25.2541,23.3817 25.5036,23.2642 L25.5101,23.2607 C27.1746,22.3387 28.0341,20.7652 27.9301,18.8312 C27.7701,15.7037 27.5931,12.5022 27.4031,9.3142 L27.4031,9.3142 Z" id="Fill-1" fill="#0000FD" mask="url(#mask-2)"></path>
            </g>
        </g>
    </g>
</svg>