<svg width="20" height="16" viewBox="0 0 20 16" xmlns="http://www.w3.org/2000/svg"><title>List</title><path d="M18.571 6.4H1.43C.639 6.4 0 7.116 0 8c0 .884.64 1.6 1.429 1.6H18.57C19.361 9.6 20 8.884 20 8c0-.884-.64-1.6-1.429-1.6zM1.43 3.2H18.57c.79 0 1.429-.716 1.429-1.6 0-.884-.64-1.6-1.429-1.6H1.43C.639 0 0 .716 0 1.6c0 .884.64 1.6 1.429 1.6zm17.142 9.6H1.43C.639 12.8 0 13.516 0 14.4c0 .884.64 1.6 1.429 1.6H18.57c.79 0 1.429-.716 1.429-1.6 0-.884-.64-1.6-1.429-1.6z" fill="#0000FD" fill-rule="evenodd"/></svg>