<svg width="28" height="28" viewBox="0 0 28 28" xmlns="http://www.w3.org/2000/svg" xmlns:xlink="http://www.w3.org/1999/xlink"><title>Page 1</title><defs><path id="a" d="M0 .262h27.939V28H0V.262z"/></defs><g fill="none" fill-rule="evenodd"><mask id="b" fill="#fff"><use xlink:href="#a"/></mask><path d="M25.454 23.159a1.691 1.691 0 0 1-.717.168c-.156 0-.302-.026-.428-.073.116.032.241.048.372.048.248 0 .51-.06.755-.174l.008-.004c1.334-.734 2.14-1.89 2.336-3.32-.183 1.44-.976 2.607-2.326 3.355zM24.17 5.416c-.093-.09-.192-.187-.296-.28.13.111.252.23.368.338 1.242 1.16 2.056 2.458 2.22 4.179l.128 1.35-.135-1.288c-.166-1.578-.874-2.926-2.229-4.244l-.056-.055zm-.495 12.657c-.205.475-.58.84-1.057 1.029a2.352 2.352 0 0 1-.867.17c-.49 0-.938-.172-1.302-.47a7.459 7.459 0 0 0-.575 1.62c.063-.531.22-1.09.473-1.704a2.257 2.257 0 0 1-.185-.2 7.832 7.832 0 0 0-.422 1.228c.062-.415.181-.85.352-1.314a2.394 2.394 0 0 1-.179-.276 8.277 8.277 0 0 0-.291.859 7.32 7.32 0 0 1 .254-.935c-.032-.063-.066-.124-.093-.191l-.078-.195a8.57 8.57 0 0 0-.192.562c.046-.2.104-.406.17-.616a95.545 95.545 0 0 0-.173-.427c-.03.087-.066.175-.095.262.024-.092.06-.19.087-.284a3246.653 3246.653 0 0 1-2.409-5.99c-.385 1.326-.483 2.48-.31 3.594l.007.044.628 1.57c.234.582.235 1.196.005 1.729a1.91 1.91 0 0 1-1.056 1.029c-.287.113-.579.17-.868.17a2.05 2.05 0 0 1-.804-.16c-.544-.196-.944-.598-1.187-1.195a520.614 520.614 0 0 1-1.27-3.146c-.171-.43-.344-.862-.518-1.292l-.893-2.223c-.373 1.303-.466 2.44-.295 3.538.058.365.215.718.381 1.092.072.161.146.328.21.495.289.74.237 1.421-.155 2.027-.387.6-.958.904-1.698.904-.097 0-.199-.006-.302-.017-.803-.084-1.395-.538-1.712-1.313a513.53 513.53 0 0 1-1.26-3.128c-.177-.437-.35-.874-.527-1.31l-.415-1.032c-.292-.726-.584-1.451-.874-2.178-.264-.658-.23-1.288.096-1.872C4.653 7.856 5.277 7.5 6.084 7.5l.094.001c.873.03 1.514.47 1.855 1.273.236.554.463 1.122.685 1.67a96.015 96.015 0 0 0 .382.946l.018-.065c.14-.482.284-.981.46-1.46.294-.8.707-1.4 1.263-1.831.363-.382.84-.583 1.423-.598a1.885 1.885 0 0 1 .678.073c.51.13.908.431 1.186.892.083.123.15.245.2.364.312.754.645 1.568 1.033 2.526a21.796 21.796 0 0 1 .468-1.49c.338-.922.836-1.58 1.524-2.015.44-.28.879-.421 1.304-.421.392 0 .77.122 1.122.362.34.232.647.605.8.973.918 2.218 1.825 4.484 2.703 6.676l.388.967c.233.582.234 1.196.005 1.73zM20.007 21.1v.007-.005.006l-.002.005v-.008l.002-.005c.052-.632.24-1.293.585-2.05.033.053.067.105.103.156-.326.64-.569 1.265-.688 1.894zm.166.494l-.008-.091.001-.014v.01l-.001-.01.003-.006c.07-.637.286-1.306.672-2.084.038.047.077.091.117.134l.019.022c-.382.69-.669 1.362-.803 2.039zm1.142-1.428c-.036-.03-.076-.055-.13-.12-.405.694-.709 1.366-.852 2.046a9.409 9.409 0 0 0-.008-.206l.001-.017c0 .004 0 .009-.002.013v-.011l.004-.005c.087-.612.315-1.255.71-2.008.177.17.35.344.52.521-.08-.071-.161-.143-.243-.213zm.191.504c-.036-.026-.075-.047-.127-.104-.423.687-.744 1.352-.894 2.027l-.002.004v-.328c.002-.006.002-.012.003-.019 0 .004 0 .008-.002.013v-.01l.004-.005c.105-.581.342-1.193.743-1.912.304.261.6.536.89.816a16.77 16.77 0 0 0-.615-.482zm.19.503c-.034-.021-.074-.037-.124-.087-.415.639-.739 1.257-.91 1.885-.004.002-.005.027-.009.03l-.053.491a.985.985 0 0 0 .007-.096c.004-.168.013-.34.023-.506.004-.08.009-.158.012-.238a.605.605 0 0 0 .004-.021l.001-.001c.123-.55.37-1.13.775-1.814.446.33.876.696 1.293 1.063a16.05 16.05 0 0 0-1.018-.706zm-2.726 3.982a1.729 1.729 0 0 0 .85-.169c.508-.232.864-.726.908-1.259a4187914544415.615 4187914544415.615 0 0 0 .073-.694l.004-.02.002-.002c.14-.518.399-1.065.807-1.712 0 0 .002 0 .003.002.577.362 1.129.784 1.663 1.198a15.973 15.973 0 0 0-1.393-.822c-.034-.017-.073-.03-.121-.072-.408.591-.736 1.163-.926 1.744-.005.003-.006.025-.01.027-.038.22-.08.44-.113.662-.06.413-.352.842-.81 1.055a1.696 1.696 0 0 1-.703.162h-.034c-.243 0-.441-.063-.603-.166l-.038-.024c.136.054.282.084.441.09zm-.2-.234c.045.005.096.008.147.008.25 0 .511-.06.759-.17.505-.228.864-.72.923-1.248a9.389 9.389 0 0 0-.02.204 1.41 1.41 0 0 1-.821 1.135 1.696 1.696 0 0 1-.782.155 1.103 1.103 0 0 1-.516-.14c.097.031.2.05.31.056zm-.474-.479c.023.005.045.01.07.012a1.7 1.7 0 0 0 .25.019c.257 0 .518-.056.773-.17a1.64 1.64 0 0 0 .887-.95c-.086.42-.376.815-.818 1.01a1.71 1.71 0 0 1-.69.154c-.062 0-.122-.004-.18-.012a1.204 1.204 0 0 1-.292-.063zm.27.246c.066.008.134.012.202.012.255 0 .512-.057.765-.169.45-.2.78-.599.901-1.055a1.413 1.413 0 0 1-.826 1.13 1.697 1.697 0 0 1-.827.15 1.16 1.16 0 0 1-.406-.1c.061.014.126.025.192.032zm-.104-.442c.26 0 .524-.057.784-.17a1.68 1.68 0 0 0 .864-.868 1.438 1.438 0 0 1-.801.913 1.725 1.725 0 0 1-.693.152c-.076 0-.151-.006-.223-.017a1.268 1.268 0 0 1-.127-.023c.064.008.13.013.196.013zm-.156-.226c.265 0 .533-.058.797-.17a1.72 1.72 0 0 0 .815-.74c-.139.328-.4.612-.759.768a1.754 1.754 0 0 1-.697.151c-.057 0-.111-.004-.165-.01h.009zm.652-.398c.308-.131.56-.343.741-.6a1.473 1.473 0 0 1-.688.613c-.24.103-.48.151-.705.151h-.008a2.12 2.12 0 0 0 .66-.164zm-.252-.471a1.817 1.817 0 0 0 .005-.002l-.005.002zm.11.244c.26-.111.482-.281.657-.488a1.482 1.482 0 0 1-.613.485 1.893 1.893 0 0 1-.43.125 2.26 2.26 0 0 0 .385-.122zm3.263-1.215c-.035-.013-.073-.02-.12-.055-.4.542-.731 1.069-.942 1.602-.005.003-.007.023-.01.025-.051.203-.106.405-.152.61a1.465 1.465 0 0 1-.798.974 1.726 1.726 0 0 1-.693.169h-.056a1.12 1.12 0 0 1-.519-.118c-.452-.234-.914-.445-1.371-.669l-.864-.42c-.398.534-.724 1.055-.936 1.581-.085.212-.116.414-.167.62a1.452 1.452 0 0 1-.395.69c-.753.464-1.527.695-2.306.695-.655 0-1.312-.163-1.964-.49-.692-.344-1.387-.7-2.086-1.066a65.167 65.167 0 0 1-5.78-3.415c-1.44-.999-2.225-2.42-2.314-4.21C.52 17.115.449 15.53.372 13.944.29 12.36.198 10.772.124 9.185a5.98 5.98 0 0 1 .173-1.793c.265-1.02.881-1.87 1.87-2.542l.048-.034c-.028.02-.057.04-.084.062C1.16 5.555.538 6.428.286 7.469a6.194 6.194 0 0 0-.15 1.798c.058 1.054.124 2.125.19 3.16l.093 1.51.08 1.396c.06 1.068.122 2.173.186 3.26.108 1.795.886 3.222 2.315 4.24a55.332 55.332 0 0 0 5.622 3.336c.681.352 1.365.695 2.032 1.02a4.375 4.375 0 0 0 1.934.47c.792 0 1.578-.24 2.334-.712l.026-.021a1.53 1.53 0 0 0 .42-.82c.01-.06.018-.12.026-.179a2.62 2.62 0 0 1 .098-.475c.161-.483.427-.99.83-1.585l.637.39.137.086.484.293c.301.182.614.37.915.564.194.124.42.187.675.187h.034c.248 0 .51-.06.76-.174.466-.216.813-.67.884-1.156.022-.147.049-.297.075-.442l.035-.202a.123.123 0 0 0 .007-.022v-.001c.16-.484.428-.997.839-1.606l.003.001.02.01c.615.314 1.206.7 1.778 1.073l.23.15c-.575-.302-1.152-.602-1.756-.839zm-18.303-.806a5.47 5.47 0 0 1-1.427-2.303c.292.877.77 1.648 1.427 2.303zm.091.416c-1.083-.902-1.736-2.08-1.946-3.5.24 1.404.894 2.577 1.952 3.49l.008.006c.256.202.518.396.781.585a28.36 28.36 0 0 1-.795-.581zm4.637 3.071a41.13 41.13 0 0 0 1.762.784c.5.21 1.006.318 1.504.318.752 0 1.484-.241 2.18-.718l.045-.042c.213-.262.337-.55.374-.863l.005.088c.016.341-.079.676-.342.992-.678.456-1.383.682-2.098.682a3.733 3.733 0 0 1-1.511-.333c-.598-.257-1.2-.534-1.81-.827a29.737 29.737 0 0 1-4.904-2.965c-1.203-.969-1.888-2.268-2.038-3.857l-.067-.724.065.63c.169 1.61.861 2.932 2.06 3.93l.007.006a26.164 26.164 0 0 0 4.768 2.9zm1.687.475c.47.192.945.29 1.414.29.744 0 1.467-.243 2.15-.722l.05-.046a1.72 1.72 0 0 0 .357-.771 1.42 1.42 0 0 1-.335.98c-.663.454-1.355.68-2.057.68-.47 0-.945-.102-1.42-.303a42.345 42.345 0 0 1-1.754-.779c-.281-.131-.558-.27-.833-.41.238.119.477.235.718.345.58.267 1.155.515 1.71.736zm-.076-.308c.44.172.887.26 1.325.26.737 0 1.452-.244 2.123-.726l.051-.05c.171-.218.283-.455.34-.705a1.451 1.451 0 0 1-.332.906c-.648.453-1.326.678-2.017.678-.44 0-.883-.09-1.328-.272a34.923 34.923 0 0 1-1.392-.593c.418.182.831.35 1.23.502zm1.16-.077c.731 0 1.437-.246 2.095-.73l.054-.054c.151-.198.256-.41.317-.631a1.48 1.48 0 0 1-.324.823c-.633.454-1.298.678-1.977.678-.408 0-.822-.08-1.236-.242a36.254 36.254 0 0 1-.592-.235c.144.056.288.11.429.16.41.153.826.23 1.234.23zm-.166-.337c.726 0 1.422-.247 2.069-.736l.056-.056c.13-.173.227-.356.29-.547a1.54 1.54 0 0 1-.312.73c-.618.454-1.27.679-1.937.679-.377 0-.76-.072-1.143-.215l-.063-.023c.347.111.697.168 1.04.168zm-.167-.335c.721 0 1.409-.25 2.045-.744l.057-.059a2 2 0 0 0 .26-.476 1.59 1.59 0 0 1-.297.652c-.602.455-1.242.679-1.898.679-.303 0-.61-.047-.918-.143.25.06.503.091.751.091zm-.167-.334c.716 0 1.397-.254 2.021-.753l.058-.061c.086-.12.158-.243.216-.37a1.659 1.659 0 0 1-.268.537c-.587.456-1.214.681-1.86.681-.2 0-.401-.024-.604-.067.147.02.293.033.437.033zm1.915-4.952a6.9 6.9 0 0 1 .194-1.09l.05.122a7.903 7.903 0 0 0-.244.968zm.224.771c.026-.406.096-.823.213-1.264l.06.15a7.318 7.318 0 0 0-.273 1.114zm.228.76c.014-.469.093-.952.237-1.468.027.048.056.096.085.143a6.96 6.96 0 0 0-.322 1.325zm.235.717V21.2c.004-.545.1-1.105.292-1.716.038.047.078.092.119.136a6.752 6.752 0 0 0-.41 1.621zm.242.637a1.864 1.864 0 0 1-.007-.204c.018-.573.141-1.168.376-1.823l.04.044c.033.043.067.084.101.125-.262.625-.443 1.24-.51 1.858zm.244.613a1.893 1.893 0 0 1-.016-.344c.034-.598.184-1.22.466-1.918.05.06.102.119.157.174l.013.016c-.325.699-.547 1.382-.62 2.072zm.24.578c-.02-.151-.033-.3-.02-.448.051-.62.235-1.268.568-2.008l.02.023c.053.07.11.137.169.2-.384.755-.652 1.489-.736 2.233zm.253.469c-.007.05-.012.1-.015.148a2.605 2.605 0 0 1-.023-.592c.072-.635.285-1.297.666-2.064l.21.247c-.423.767-.728 1.508-.838 2.26zm1.12-1.677c-.423.728-.737 1.431-.868 2.145-.053.286-.02.558-.018.836 0 .32-.099.634-.353.932-.694.456-1.412.684-2.14.684a3.866 3.866 0 0 1-1.602-.364 56.172 56.172 0 0 1-1.864-.875 34.349 34.349 0 0 1-5.08-3.055c-1.25-.974-1.954-2.298-2.093-3.928-.07-.811-.137-1.622-.204-2.433l.218 2.336c.156 1.647.867 2.992 2.112 3.994l.006.005a30.066 30.066 0 0 0 4.937 2.985c.616.296 1.227.575 1.816.83a3.951 3.951 0 0 0 1.59.349c.76 0 1.503-.24 2.21-.716l.042-.038c.277-.332.408-.712.389-1.13a6.574 6.574 0 0 0-.018-.252 2.676 2.676 0 0 1-.002-.6c.088-.605.311-1.238.698-1.974l.48.515-.255-.246zm.27.61c-.417.678-.734 1.337-.886 2.003-.061.268-.043.522-.055.782-.014.3-.118.593-.364.871-.707.458-1.44.687-2.18.687a3.985 3.985 0 0 1-1.693-.395c-.635-.292-1.275-.6-1.92-.922a39.994 39.994 0 0 1-5.255-3.146c-1.298-.98-2.02-2.329-2.148-3.998-.107-1.403-.21-2.805-.314-4.207l.084 1.005c.087 1.034.172 2.068.26 3.101.144 1.686.872 3.05 2.164 4.057l.005.004a34.857 34.857 0 0 0 5.106 3.071c.635.312 1.264.607 1.87.878a4.05 4.05 0 0 0 1.677.379c.768 0 1.521-.24 2.24-.714l.039-.034a1.57 1.57 0 0 0 .397-1.052c0-.079-.003-.157-.005-.234a2.557 2.557 0 0 1 .02-.568c.106-.576.34-1.18.732-1.882l.597.576.17.163.328.314-.869-.74zm2.368 2.335c-.315-.193-.632-.383-.948-.576-.293-.18-.588-.36-.882-.542-.403.584-.726 1.15-.918 1.723-.078.23-.092.45-.13.674-.043.257-.157.51-.385.75-.738.462-1.498.692-2.263.692a4.235 4.235 0 0 1-1.874-.458 89.546 89.546 0 0 1-2.031-1.018 54.92 54.92 0 0 1-5.606-3.325c-1.392-.993-2.154-2.39-2.258-4.14C.726 17.031.64 15.48.552 13.927c-.07-1.152-.145-2.303-.213-3.455.045.66.092 1.318.138 1.962l.106 1.486.09 1.393.208 3.165c.12 1.759.883 3.165 2.266 4.18a46.967 46.967 0 0 0 5.45 3.248c.669.34 1.334.667 1.98.972a4.27 4.27 0 0 0 1.847.44c.785 0 1.56-.24 2.303-.712l.03-.026c.24-.262.378-.564.413-.896l.017-.198c.011-.173.024-.337.07-.505.144-.515.398-1.055.798-1.688.172.125.343.251.513.377l.258.19.495.36c.262.19.53.386.793.584zm-1.199-1.065l-.9-.662c-.41.632-.73 1.244-.902 1.863-.07.25-.068.487-.093.729a1.38 1.38 0 0 1-.374.81c-.723.46-1.469.69-2.222.69-.593 0-1.19-.143-1.784-.427a78.74 78.74 0 0 1-1.975-.97 46.778 46.778 0 0 1-5.43-3.235c-1.345-.987-2.087-2.36-2.203-4.07-.104-1.52-.2-3.038-.299-4.557l-.109-1.517.005.056c.04.485.08.971.117 1.457l.098 1.314c.076 1.03.155 2.096.235 3.144.131 1.722.876 3.108 2.213 4.118l.005.003a40.292 40.292 0 0 0 5.276 3.16c.65.324 1.298.635 1.925.923a4.14 4.14 0 0 0 1.763.41c.775 0 1.54-.24 2.271-.713l.034-.029c.253-.286.389-.614.406-.974a7.87 7.87 0 0 0 .005-.217c.003-.184.006-.358.046-.536.125-.546.369-1.118.765-1.787l.498.425.27.23.506.427c.117.1.237.2.356.3-.168-.12-.335-.242-.503-.365zm-6.31-.13c.715 0 1.389-.256 2-.764l.059-.062c.062-.087.116-.176.163-.267a1.733 1.733 0 0 1-.23.426c-.571.459-1.187.684-1.822.684-.11 0-.221-.01-.332-.022.055.003.108.006.163.006zm1.866-5.407c.037-.292.092-.59.17-.9l.04.096a8.818 8.818 0 0 0-.21.804zm-.055 4.298l.057-.063c.032-.044.06-.09.09-.135a1.899 1.899 0 0 1-.17.287c-.557.461-1.16.687-1.787.687l-.037-.001c.664-.031 1.285-.29 1.847-.775zm-.153-5.122c.034-.22.08-.446.137-.677l.027.068a9.417 9.417 0 0 0-.164.61zm-.198-.853c.026-.14.058-.283.092-.427l.017.04c-.04.13-.076.258-.11.387zm.163 5.63l.044-.05a2.464 2.464 0 0 1-.084.13c-.456.392-.949.613-1.462.673.54-.09 1.042-.343 1.502-.753zm-.348-6.512c.01-.05.022-.101.035-.152a.057.057 0 0 0 .004.013l-.04.139zm.14 6.183l-.037.055c-.334.3-.692.501-1.065.608.392-.128.76-.349 1.101-.663zm8.299-17.625c-.314.072-.636.153-1.034.257l-.25-.27c-.498-.534-1.012-1.086-1.522-1.626a3.678 3.678 0 0 0-.23-.222 3.333 3.333 0 0 0-1.003-.655 3.382 3.382 0 0 0-.503-.177 3.582 3.582 0 0 0-.943-.142c-.053 0-.104.001-.154.005a4.601 4.601 0 0 0-1.011-.116 4.17 4.17 0 0 0-1.4.243c-.742.264-1.453.707-2.17 1.353l-.015.014a148.996 148.996 0 0 0-1.504.18 68.73 68.73 0 0 1-1.682.195 9.171 9.171 0 0 0-1.647.325 11.07 11.07 0 0 1 1.66-.4c.872-.138 1.73-.302 2.596-.454l.735-.129.056-.048c.724-.622 1.445-1.04 2.184-1.27.39-.12.792-.184 1.209-.184.38 0 .772.052 1.18.162h.035c.309 0 .65.059 1.014.168.156.045.314.102.469.174.348.151.664.355.942.61.08.067.153.136.223.205.623.628 1.241 1.26 1.86 1.89.38-.064.751-.122 1.143-.176.307-.043.64-.072 1.012-.072l.09.001a6.19 6.19 0 0 0-1.34.16zm-1.214.584l-.222-.25c-.496-.56-1.008-1.138-1.517-1.704a3.131 3.131 0 0 0-.23-.232 3.176 3.176 0 0 0-1.025-.676 3.072 3.072 0 0 0-.518-.172 3.427 3.427 0 0 0-.846-.117c-.096 0-.19.005-.28.016a4.544 4.544 0 0 0-.822-.077 4.05 4.05 0 0 0-1.544.302c-.721.29-1.409.751-2.103 1.407 0 .002-.002.003-.004.005l-.628.037c-.275.015-.548.032-.821.05-.535.034-1.087.07-1.635.09-.372.013-.754.06-1.145.137.408-.097.793-.16 1.148-.195.85-.084 1.686-.198 2.529-.297l.715-.085.054-.049c.7-.632 1.399-1.065 2.114-1.32a3.97 3.97 0 0 1 1.344-.234c.32 0 .652.038.997.118a1.86 1.86 0 0 1 .168-.006c.277 0 .58.047.901.136.16.042.32.098.48.17.356.15.676.359.955.624.079.07.153.141.221.213.617.654 1.228 1.311 1.84 1.968.376-.1.738-.191 1.125-.28l.018-.004a6.494 6.494 0 0 0-.276.08c-.354.115-.684.232-.993.345zm-.317.165A333.118 333.118 0 0 0 17.22 3.1a3.301 3.301 0 0 0-.232-.242 3.038 3.038 0 0 0-1.046-.697 2.994 2.994 0 0 0-.533-.169 3.374 3.374 0 0 0-.763-.095c-.137 0-.268.01-.392.032a4.498 4.498 0 0 0-.632-.046c-.59 0-1.142.121-1.692.37-.688.313-1.35.789-2.025 1.454-.197 0-.396-.001-.593-.003-.202-.002-.403-.002-.605-.002H8.32a51.163 51.163 0 0 1-1.544-.016c-.205 0-.413.013-.625.034.27-.04.525-.064.767-.073.825-.03 1.64-.094 2.459-.14l.696-.041.052-.05c.677-.64 1.35-1.091 2.045-1.37.467-.189.955-.29 1.476-.29.264 0 .535.026.817.08.09-.013.186-.019.285-.019.248 0 .52.039.804.112.164.039.327.093.49.164.364.15.69.363.968.638.078.073.153.147.22.222.611.68 1.216 1.364 1.82 2.047.179-.065.353-.128.53-.19-.23.1-.45.203-.656.3l-.135-.16zm-.183.313c-.5-.622-1.017-1.264-1.531-1.893a3.095 3.095 0 0 0-.234-.253 2.899 2.899 0 0 0-1.066-.716 2.854 2.854 0 0 0-.55-.167 3.283 3.283 0 0 0-.687-.077c-.176 0-.343.017-.497.052a4.456 4.456 0 0 0-.443-.022c-.646 0-1.247.146-1.838.446-.66.336-1.297.824-1.943 1.493l-.555-.04c-.258-.02-.517-.037-.776-.054a56.37 56.37 0 0 1-1.54-.119 4.764 4.764 0 0 0-.428-.02c.088-.005.174-.007.258-.007a50.382 50.382 0 0 0 1.545.017h.991c.224.003.451.003.676.004l.052-.05c.654-.648 1.302-1.116 1.974-1.421a3.832 3.832 0 0 1 1.609-.353c.206 0 .417.016.635.049.123-.024.253-.035.39-.035.224 0 .466.031.719.09.167.037.334.09.501.16.372.15.702.368.98.653.08.075.154.152.22.23.605.706 1.203 1.417 1.801 2.125a.026.026 0 0 0 .008-.003c-.046.026-.09.053-.137.078l-.134-.167zm-8.963-.306l-.473-.104c-.245-.055-.489-.107-.733-.16a55.86 55.86 0 0 1-1.299-.29c.683.11 1.362.197 2.042.296.205.03.41.06.616.088-.051.056-.102.111-.153.17zm-.087.41c-.143-.042-.286-.084-.428-.128a92.67 92.67 0 0 0-.709-.211c-.33-.098-.67-.199-1.009-.304.57.13 1.137.246 1.705.373.188.042.378.083.567.123-.041.05-.083.097-.126.147zm-.469.26a77.042 77.042 0 0 0-.685-.263 91.23 91.23 0 0 1-.727-.28c.458.138.916.271 1.375.41.173.053.348.105.522.156l-.101.125a43.547 43.547 0 0 1-.384-.147zm-.037.392c-.223-.107-.444-.213-.667-.318l-.428-.205c.343.132.686.262 1.03.396l.48.185-.08.103-.335-.16zm-.037.394c-.216-.126-.432-.25-.647-.373l-.147-.085c.233.11.467.222.7.334l.442.21-.058.081a31.586 31.586 0 0 1-.29-.167zm-.036.397l-.484-.331.36.208c.133.078.27.155.405.232l-.039.056-.242-.165zm.077.935v.002l-.014-.013.014.011zm-.112-.536l-.168-.135.014.01c.12.084.244.167.367.25l-.019.03c-.065-.05-.13-.103-.194-.155zm2.525-3.844c.079-.05.156-.104.235-.149a3.709 3.709 0 0 1 2.081-.493 2 2 0 0 0-.177.048h-.058c-.75 0-1.43.197-2.08.594zm1.706-.03h-.007l-.141.017c.048-.006.098-.014.148-.018zm-1.047-.03c.414-.174.86-.273 1.354-.282-.031.01-.063.019-.093.03a3.807 3.807 0 0 0-1.26.252zm4.803.335a3.172 3.172 0 0 0-.234-.263 2.824 2.824 0 0 0-1.09-.738 2.785 2.785 0 0 0-.567-.163 3.256 3.256 0 0 0-.617-.063c-.213 0-.414.026-.597.077a3.936 3.936 0 0 0-2.237.523c-.635.36-1.243.86-1.858 1.53l-.514-.075c-.252-.037-.504-.071-.755-.106-.49-.068-.995-.138-1.493-.222l-.107-.016.064.005c.779.075 1.548.115 2.322.173l.658.047.048-.052c.632-.656 1.257-1.14 1.907-1.471a3.764 3.764 0 0 1 1.739-.423c.148 0 .3.009.456.026.15-.038.313-.055.484-.055.203 0 .419.025.645.073.17.033.341.084.511.155.38.148.714.37.993.667.08.078.154.157.22.238.589.721 1.17 1.446 1.753 2.17l-.104.072-.09-.117c-.5-.654-1.02-1.33-1.537-1.992zm-.146.271a3.034 3.034 0 0 0-.234-.274 2.74 2.74 0 0 0-1.113-.76 2.716 2.716 0 0 0-.582-.158 3.172 3.172 0 0 0-.555-.052c-.097 0-.188.007-.28.017.128-.024.261-.037.402-.037.183 0 .377.02.577.06.175.03.349.078.523.149a2.6 2.6 0 0 1 1.005.682c.08.08.153.162.218.246.575.735 1.14 1.475 1.709 2.214l-.082.065-.057-.077c-.5-.681-1.016-1.385-1.53-2.075zm-.145.272a2.907 2.907 0 0 0-.235-.286 2.686 2.686 0 0 0-1.136-.781 2.646 2.646 0 0 0-.6-.156 3.331 3.331 0 0 0-.466-.04c.033 0 .064-.003.098-.003.163 0 .336.017.515.048.177.028.355.075.532.146.396.146.74.379 1.018.696.08.082.155.168.219.254.56.75 1.112 1.503 1.665 2.256a6.534 6.534 0 0 0-.063.057l-.025-.035a274.5 274.5 0 0 0-1.522-2.156zm-.688.057c-.24-.247-.52-.44-.837-.576.32.13.601.323.837.576zm.543.215a2.709 2.709 0 0 0-.236-.297 2.629 2.629 0 0 0-1.161-.804 2.562 2.562 0 0 0-.473-.13h.006c.181.025.363.07.544.141.403.145.75.383 1.03.71.08.086.155.174.218.263.532.745 1.057 1.493 1.583 2.241l-.05.035c-.478-.71-.97-1.442-1.461-2.159zm.951 2.514c-.002.003-.007.005-.01.008l-.383-.618.393.61zm-.79-1.772c.358.526.713 1.053 1.067 1.58l-.03.02c-.34-.529-.689-1.066-1.037-1.6zm10.413 4.828l-.042-.55c-.13-1.72-.884-3.117-2.372-4.397l-.104-.09a5.093 5.093 0 0 0-.65-.505 3.841 3.841 0 0 0-1.807-.574 7.33 7.33 0 0 0-1.554.056 38.97 38.97 0 0 0-1.071.163l-.321-.328a344.67 344.67 0 0 0-1.486-1.507 4.142 4.142 0 0 0-.23-.213 3.534 3.534 0 0 0-.98-.634 3.537 3.537 0 0 0-.487-.18 3.7 3.7 0 0 0-1.056-.175h-.016a4.734 4.734 0 0 0-1.199-.161c-.423 0-.844.064-1.254.192-.764.237-1.495.661-2.238 1.298a.526.526 0 0 1-.025.022l-.693.122c-.289.05-.576.102-.864.154-.566.102-1.15.207-1.73.299-.74.116-1.496.32-2.247.603.819-.329 1.582-.55 2.267-.696.895-.192 1.777-.407 2.666-.61l.753-.173.058-.048c.75-.61 1.493-1.015 2.254-1.218.35-.094.707-.143 1.076-.143.438 0 .89.07 1.361.213.315.015.662.087 1.03.206.152.048.306.107.458.178.34.153.652.352.93.595.077.066.153.132.223.198.628.601 1.254 1.207 1.879 1.81.388-.027.765-.05 1.163-.07a8.755 8.755 0 0 1 1.518.046 4.09 4.09 0 0 1 1.704.582c.262.16.504.375.73.562 1.401 1.155 2.25 2.522 2.371 4.35.146 2.207.292 4.414.433 6.62-.147-2.012-.3-4.028-.448-5.997zm-.142.584l-.09-1.054c-.142-1.672-.88-3.053-2.324-4.346l-.09-.08a4.882 4.882 0 0 0-.672-.54 3.515 3.515 0 0 0-.84-.385c.305.088.61.219.912.406.266.165.51.388.735.582 1.347 1.158 2.184 2.501 2.32 4.294.12 1.586.24 3.172.358 4.757-.103-1.22-.206-2.437-.309-3.634zm-.28-.974c-.153-1.624-.877-2.99-2.277-4.296l-.073-.07c-.205-.192-.438-.411-.697-.573a3.833 3.833 0 0 0-.163-.095c.075.04.15.083.225.13.27.168.515.4.74.602 1.294 1.159 2.12 2.48 2.27 4.236l.252 2.967-.15-1.574-.127-1.327zm-2.028 13.527c.25 0 .503-.058.751-.17l.01-.006c.716-.39 1.277-.904 1.67-1.518-.388.62-.946 1.142-1.667 1.538-.24.111-.48.162-.7.162-.053 0-.105-.004-.156-.01.03.002.062.004.092.004zm-.28-17.297c1.019 1.058 1.71 2.23 1.9 3.724-.199-1.347-.808-2.543-1.9-3.724zm1.265 16.815a5.358 5.358 0 0 1-.296.175 1.797 1.797 0 0 1-.006 0l.01-.005c.1-.054.198-.11.292-.17zM24.986 7.02zm-20.49-3.5c.864-.374 1.674-.64 2.408-.837.918-.244 1.822-.51 2.734-.765l.773-.218c.019-.015.04-.03.058-.046.774-.604 1.542-.99 2.325-1.168a4.2 4.2 0 0 1 .941-.107c.498 0 1.011.087 1.544.27.312.034.653.118 1.01.244.15.05.3.111.448.183.332.154.64.348.917.581.077.062.153.125.223.19.636.574 1.268 1.153 1.9 1.731.394.007.78.02 1.183.034.452.015.944.053 1.512.148a4.566 4.566 0 0 1 1.668.61c.259.158.5.363.726.542 1.456 1.151 2.317 2.543 2.42 4.409.17 2.83.326 5.662.473 8.492-.172-2.804-.36-5.637-.543-8.388l-.002-.03c-.118-1.769-.886-3.182-2.419-4.445l-.117-.098c-.198-.165-.403-.336-.63-.475a4.202 4.202 0 0 0-1.756-.6 8.81 8.81 0 0 0-1.54-.047c-.402.02-.756.042-1.107.066l-.328-.316c-.494-.478-1.004-.97-1.51-1.453a5 5 0 0 0-.23-.204 3.842 3.842 0 0 0-.96-.614c-.15-.07-.31-.133-.472-.184a4.09 4.09 0 0 0-1.046-.21A4.787 4.787 0 0 0 13.714.6c-.373 0-.747.049-1.111.147-.775.207-1.528.614-2.304 1.244l-.034.028c-.24.056-.482.111-.722.165-.296.068-.59.138-.886.207-.58.136-1.181.276-1.778.403a14.08 14.08 0 0 0-2.407.75c-.291.12-.57.251-.842.39.284-.15.573-.287.867-.415zm22.907 5.794c-.1-1.791-.906-3.261-2.464-4.493l-.13-.103c-.193-.155-.392-.316-.608-.447a4.688 4.688 0 0 0-1.71-.627 11.52 11.52 0 0 0-1.527-.149c-.36-.013-.75-.025-1.141-.033l-.379-.345c-.487-.446-.99-.906-1.488-1.357a5.39 5.39 0 0 0-.23-.195 4.251 4.251 0 0 0-.94-.595 4.243 4.243 0 0 0-.459-.188 4.693 4.693 0 0 0-1.021-.247 4.875 4.875 0 0 0-1.57-.273c-.325 0-.65.037-.969.11-.804.183-1.579.572-2.37 1.19l-.04.032-.75.211-.914.259c-.595.169-1.21.344-1.819.507-.828.22-1.643.504-2.424.84-.87.38-1.66.831-2.35 1.344C1.102 5.433.457 6.31.184 7.363A6.13 6.13 0 0 0 .008 9.19c.05 1.072.108 2.162.165 3.217l.083 1.543.071 1.496c.051 1.069.104 2.173.162 3.26.092 1.83.887 3.277 2.364 4.3a65.475 65.475 0 0 0 5.793 3.424c.703.368 1.405.727 2.089 1.067.664.333 1.342.502 2.015.502.802 0 1.599-.24 2.367-.713l.022-.017c.218-.22.357-.464.425-.744l.037-.16c.034-.151.065-.295.126-.444.18-.45.455-.92.863-1.478l.77.375.006.004.474.228c.295.14.6.286.896.439a1.244 1.244 0 0 0 .633.13c.24-.004.496-.066.738-.18a1.58 1.58 0 0 0 .862-1.054c.03-.134.064-.27.099-.402l.048-.19.008-.023.001-.002c.178-.45.455-.926.87-1.496l.022.008.019.007c.604.236 1.192.544 1.761.84l.345.18c.17.09.376.135.595.135.252 0 .517-.061.767-.179l.006-.003c1.665-.922 2.524-2.496 2.42-4.43-.16-3.127-.337-6.329-.527-9.517z" fill="#0000FD" mask="url(#b)"/></g></svg>